<svg width="50" height="50" viewBox="0 0 50 50" fill="none" xmlns="http://www.w3.org/2000/svg">
<circle cx="25" cy="25" r="25" fill="#8EA8FF"/>
<path d="M18.7388 33.3571V30.7411C18.7388 29.8611 18.9028 29.1011 19.2308 28.4611C19.5588 27.8131 19.9908 27.2531 20.5268 26.7811C21.0708 26.3091 21.6628 25.8931 22.3028 25.5331C22.9508 25.1651 23.5988 24.8251 24.2468 24.5131C24.8948 24.1931 25.4868 23.8691 26.0228 23.5411C26.5668 23.2131 27.0028 22.8491 27.3308 22.4491C27.6588 22.0411 27.8228 21.5691 27.8228 21.0331C27.8228 20.3371 27.5788 19.7691 27.0908 19.3291C26.6028 18.8891 25.9428 18.6691 25.1108 18.6691C24.2388 18.6691 23.4948 18.9211 22.8788 19.4251C22.2708 19.9291 21.8988 20.6891 21.7628 21.7051H18.4148C18.4228 20.6011 18.6788 19.6011 19.1828 18.7051C19.6868 17.8011 20.4388 17.0851 21.4388 16.5571C22.4388 16.0291 23.6948 15.7651 25.2068 15.7651C26.5028 15.7651 27.6188 15.9851 28.5548 16.4251C29.4988 16.8651 30.2268 17.4771 30.7388 18.2611C31.2508 19.0451 31.5068 19.9611 31.5068 21.0091C31.5068 21.8891 31.3468 22.6451 31.0268 23.2771C30.7068 23.9011 30.2828 24.4411 29.7548 24.8971C29.2268 25.3451 28.6468 25.7371 28.0148 26.0731C27.3828 26.4091 26.7508 26.7211 26.1188 27.0091C25.4948 27.2891 24.9188 27.5811 24.3908 27.8851C23.8628 28.1811 23.4388 28.5171 23.1188 28.8931C22.7988 29.2691 22.6388 29.7211 22.6388 30.2491V30.4051H31.4828V33.3571H18.7388Z" fill="white"/>
</svg>
