<svg width="60" height="67" viewBox="0 0 60 67" fill="none" xmlns="http://www.w3.org/2000/svg">
<path d="M38.5087 2.72128C42.5227 2.72128 44.8641 4.77272 46.0348 6.23803C46.3693 6.65669 46.0767 7.07535 45.5331 6.94975C45.1568 6.86602 44.7387 6.78229 44.2788 6.78229C35.2056 6.78229 33.2822 29.8086 21.4913 29.8086C17.4774 29.8086 15.1359 27.7572 13.9652 26.2919C13.6307 25.8732 13.7979 25.4127 14.2997 25.5801C14.676 25.6639 15.3031 25.7895 15.7631 25.7895C24.8781 25.8313 26.4669 2.72128 38.5087 2.72128Z" fill="white"/>
<path opacity="0.9" d="M9.70034 15.616C9.70034 21.3098 10.2857 30.6459 19.4843 31.6507C19.9442 31.6926 19.9442 32.2787 19.5261 32.3206C18.6063 32.488 17.8955 32.6136 16.432 32.6136C8.57142 32.6136 0.167236 26.4593 0.167236 15.616C0.167236 13.439 1.92333 10.8852 4.89198 10.8852C8.02786 10.8433 9.70034 13.2297 9.70034 15.616Z" fill="white"/>
<path d="M50.3833 16.9976C50.3833 11.3038 49.7979 1.9677 40.5993 0.962919C40.1394 0.921053 40.1394 0.376794 40.5575 0.293062C41.4774 0.125598 42.1882 0 43.6516 0C51.5122 0 59.9164 6.15431 59.9164 16.9976C59.9164 19.1746 58.1603 21.7285 55.1917 21.7285C52.0558 21.7285 50.3833 19.384 50.3833 16.9976Z" fill="white"/>
<path d="M6.98258 66.3158C3.13589 66.3158 0 63.134 0 59.3241V51.2859C0 50.3229 0.794425 49.4856 1.79791 49.4856C2.80139 49.4856 3.59582 50.3229 3.59582 51.2859V59.3241C3.59582 61.25 5.10104 62.7572 7.02439 62.7572C8.98955 62.7572 10.5366 61.25 10.5784 59.3241V51.2859C10.5784 50.3229 11.331 49.4856 12.3345 49.4856C13.2962 49.4856 14.1324 50.3229 14.1324 51.2859V59.3241C14.0906 63.134 10.8711 66.3158 6.98258 66.3158Z" fill="white"/>
<path d="M33.3241 57.9426V64.5574C33.3241 65.5203 32.5296 66.3576 31.5261 66.3576C30.6481 66.3576 29.9791 65.7296 29.77 64.8923C28.4739 65.8134 26.9687 66.3576 25.2962 66.3576C22.9965 66.3576 21.0314 65.3947 19.568 63.8875C18.1045 62.3385 17.2683 60.2452 17.2683 57.9426C17.2683 55.5981 18.1045 53.5466 19.568 51.9976C21.0314 50.4485 22.9965 49.4856 25.2962 49.4856C26.9687 49.4856 28.4739 50.0718 29.77 50.9509C29.9791 50.1136 30.6481 49.4856 31.5261 49.4856C32.4878 49.4856 33.3241 50.2811 33.3241 51.2859V57.9426ZM29.77 57.9426C29.77 56.5191 29.2683 55.305 28.4739 54.4677C27.6795 53.5466 26.5087 53.0861 25.338 53.0861C24.1255 53.0861 22.9965 53.5466 22.2021 54.4677C21.4077 55.305 20.9059 56.5191 20.9059 57.9426C20.9059 59.3241 21.3659 60.5383 22.2021 61.4174C22.9965 62.2548 24.1255 62.7153 25.338 62.7153C26.5087 62.7153 27.6795 62.2548 28.4739 61.4174C29.2683 60.5383 29.77 59.3241 29.77 57.9426Z" fill="white"/>
<path d="M38.9687 36.6328C40.014 36.6328 40.8502 37.4701 40.8502 38.4749V64.4737C40.8502 65.4785 40.014 66.3158 38.9687 66.3158C37.9652 66.3158 37.1289 65.4785 37.1289 64.4737V38.4749C37.0871 37.4701 37.9234 36.6328 38.9687 36.6328Z" fill="white"/>
<path d="M60 57.9426V64.5574C60 65.5203 59.2055 66.3576 58.2021 66.3576C57.324 66.3576 56.655 65.7296 56.446 64.8923C55.1498 65.8134 53.6446 66.3576 51.9721 66.3576C49.6724 66.3576 47.7073 65.3947 46.2439 63.8875C44.7805 62.3385 43.9442 60.2452 43.9442 57.9426C43.9442 55.5981 44.7805 53.5466 46.2439 51.9976C47.7073 50.4485 49.6724 49.4856 51.9721 49.4856C53.6446 49.4856 55.1498 50.0718 56.446 50.9509C56.655 50.1136 57.324 49.4856 58.2021 49.4856C59.1637 49.4856 60 50.2811 60 51.2859V57.9426ZM56.446 57.9426C56.446 56.5191 55.9442 55.305 55.1498 54.4677C54.3554 53.5466 53.1846 53.0861 52.0139 53.0861C50.8014 53.0861 49.6724 53.5466 48.878 54.4677C48.0836 55.305 47.5818 56.5191 47.5818 57.9426C47.5818 59.3241 48.0418 60.5383 48.878 61.4174C49.6724 62.2548 50.8014 62.7153 52.0139 62.7153C53.1846 62.7153 54.3554 62.2548 55.1498 61.4174C55.9024 60.5383 56.446 59.3241 56.446 57.9426Z" fill="white"/>
<path d="M58.9965 39.061C57.9931 38.0143 56.1951 37.4282 54.7317 38.3911C53.6028 39.2285 52.8084 40.317 52.4321 40.8194C52.3903 40.8612 52.3485 40.945 52.3066 40.9868V41.0287C52.223 41.1543 52.0976 41.2799 52.014 41.4474C51.1359 42.7033 50.1324 44.1268 48.9199 44.2524C48.8363 44.2524 48.7526 44.2524 48.669 44.2524C48.46 44.2524 48.2927 44.3361 48.2091 44.5036C48.1255 44.671 48.1673 44.8804 48.2927 45.006C48.9199 45.6758 49.8816 46.1782 50.885 46.1782C51.4704 46.1782 52.014 46.0108 52.5575 45.6758C53.6864 44.8385 54.4809 43.75 54.8572 43.2476C54.899 43.2057 54.9408 43.122 54.9826 43.0801V43.0383C55.0662 42.9127 55.1917 42.7871 55.2753 42.6196C56.1533 41.3636 57.1568 39.9402 58.3694 39.8146C58.453 39.8146 58.5366 39.8146 58.6202 39.8146C58.8293 39.8146 58.9965 39.7309 59.0802 39.5634C59.122 39.3959 59.122 39.2285 58.9965 39.061Z" fill="white"/>
</svg>
