<?xml version="1.0" encoding="UTF-8"?>
<svg width="74px" height="74px" viewBox="0 0 74 74" version="1.1" xmlns="http://www.w3.org/2000/svg" xmlns:xlink="http://www.w3.org/1999/xlink">
    <title>Group 3</title>
    <defs>
        <path d="M37.0000747,0 C16.5655349,0 0,16.5655349 0,36.9999253 L0,36.9999253 C0,57.4344651 16.5655349,74 37.0000747,74 L37.0000747,74 C57.4344651,74 74,57.4344651 74,36.9999253 L74,36.9999253 C74,16.5655349 57.4344651,0 37.0000747,0 Z" id="path-1"></path>
        <linearGradient x1="26.624674%" y1="-0.171446044%" x2="63.8974051%" y2="79.8285611%" id="linearGradient-3">
            <stop stop-color="#FF6766" offset="0%"></stop>
            <stop stop-color="#8EA8FF" offset="100%"></stop>
        </linearGradient>
    </defs>
    <g id="Welcome" stroke="none" stroke-width="1" fill="none" fill-rule="evenodd">
        <g id="Desktop" transform="translate(-966.000000, -2412.000000)">
            <g id="Group-3" transform="translate(966.000000, 2412.000000)">
                <mask id="mask-2" fill="white">
                    <use xlink:href="#path-1"></use>
                </mask>
                <g id="Clip-2"></g>
                <path d="M37.0000747,0 C16.5655349,0 0,16.5655349 0,36.9999253 L0,36.9999253 C0,57.4344651 16.5655349,74 37.0000747,74 L37.0000747,74 C57.4344651,74 74,57.4344651 74,36.9999253 L74,36.9999253 C74,16.5655349 57.4344651,0 37.0000747,0 Z" id="Fill-1" fill="url(#linearGradient-3)" mask="url(#mask-2)"></path>
            </g>
        </g>
    </g>
</svg>