<?xml version="1.0" encoding="UTF-8"?>
<svg width="77px" height="38px" viewBox="0 0 77 38" version="1.1" xmlns="http://www.w3.org/2000/svg" xmlns:xlink="http://www.w3.org/1999/xlink">
    <title>Group 14</title>
    <defs>
        <polygon id="path-1" points="0 0 20.5861765 0 20.5861765 21.3961 0 21.3961"></polygon>
        <polygon id="path-3" points="0 0 4.6644 0 4.6644 37.8245871 0 37.8245871"></polygon>
        <polygon id="path-5" points="0 0 20.3674778 0 20.3674778 21.3961 0 21.3961"></polygon>
    </defs>
    <g id="Welcome" stroke="none" stroke-width="1" fill="none" fill-rule="evenodd">
        <g id="Desktop" transform="translate(-204.000000, -69.000000)">
            <g id="Group-14" transform="translate(204.000000, 69.175290)">
                <path d="M8.93557843,37.8247097 C4.03831209,37.8247097 0,33.8766377 0,29.0888056 L0,19.0512735 C0,17.8744098 1.03074511,16.8247097 2.27622878,16.8247097 C3.56588725,16.8247097 4.55368464,17.8744098 4.55368464,19.0512735 L4.55368464,29.0888056 C4.55368464,31.4821218 6.48633172,33.3727817 8.93557843,33.3727817 C11.4277729,33.3727817 13.4033676,31.4821218 13.4463154,29.0888056 L13.4463154,19.0512735 C13.4463154,17.8744098 14.391165,16.8247097 15.6808235,16.8247097 C16.8833595,16.8247097 18,17.8744098 18,19.0512735 L18,29.0888056 C18,33.8766377 13.8757925,37.8247097 8.93557843,37.8247097" id="Fill-1" fill="#FFFFFF"></path>
                <g id="Group-5" transform="translate(22.003335, 16.428610)">
                    <mask id="mask-2" fill="white">
                        <use xlink:href="#path-1"></use>
                    </mask>
                    <g id="Clip-4"></g>
                    <path d="M16.002,10.7408889 C16.002,8.94422222 15.3534706,7.40422222 14.3145882,6.33355556 C13.2769412,5.17855556 11.8069412,4.57844444 10.2924706,4.57844444 C8.736,4.57844444 7.266,5.17855556 6.27158824,6.33355556 C5.23270588,7.40422222 4.62741176,8.94422222 4.62741176,10.7408889 C4.62741176,12.496 5.23270588,14.036 6.27158824,15.1482222 C7.266,16.2176667 8.736,16.8177778 10.2924706,16.8177778 C11.8069412,16.8177778 13.2769412,16.2176667 14.3145882,15.1482222 C15.3534706,14.036 16.002,12.496 16.002,10.7408889 L16.002,10.7408889 Z M20.5861765,10.7408889 L20.5861765,19.1277778 C20.5861765,20.3683333 19.5485294,21.3962222 18.2934706,21.3962222 C17.1693529,21.3962222 16.3046471,20.5834444 16.0452353,19.5555556 C14.4022941,20.7117778 12.4554706,21.3962222 10.2924706,21.3962222 C7.35247059,21.3962222 4.80035294,20.1984444 2.94,18.2722222 C1.08088235,16.3044444 0,13.651 0,10.7408889 C0,7.788 1.08088235,5.13577778 2.94,3.20955556 C4.80035294,1.24177778 7.35247059,0 10.2924706,0 C12.4554706,0 14.4022941,0.728444444 16.0452353,1.88344444 C16.3046471,0.812777778 17.1693529,0 18.2934706,0 C19.5485294,0 20.5861765,1.02788889 20.5861765,2.31122222 L20.5861765,10.7408889 Z" id="Fill-3" fill="#FFFFFF" mask="url(#mask-2)"></path>
                </g>
                <g id="Group-8" transform="translate(46.720000, 0.000000)">
                    <mask id="mask-4" fill="white">
                        <use xlink:href="#path-3"></use>
                    </mask>
                    <g id="Clip-7"></g>
                    <path d="M2.3112,-0.000122580645 C3.6132,-0.000122580645 4.6644,1.07245806 4.6644,2.35955484 L4.6644,35.4649097 C4.6644,36.7520065 3.6132,37.8245871 2.3112,37.8245871 C1.0512,37.8245871 0,36.7520065 0,35.4649097 L0,2.35955484 C0,1.07245806 1.0512,-0.000122580645 2.3112,-0.000122580645" id="Fill-6" fill="#FFFFFF" mask="url(#mask-4)"></path>
                </g>
                <g id="Group-11" transform="translate(55.919967, 16.428610)">
                    <mask id="mask-6" fill="white">
                        <use xlink:href="#path-5"></use>
                    </mask>
                    <g id="Clip-10"></g>
                    <path d="M15.8326667,10.7408889 C15.8326667,8.94422222 15.191,7.40422222 14.1631111,6.33355556 C13.1364444,5.17855556 11.682,4.57844444 10.1835556,4.57844444 C8.64355556,4.57844444 7.18788889,5.17855556 6.204,6.33355556 C5.17733333,7.40422222 4.57844444,8.94422222 4.57844444,10.7408889 C4.57844444,12.496 5.17733333,14.036 6.204,15.1482222 C7.18788889,16.2176667 8.64355556,16.8177778 10.1835556,16.8177778 C11.682,16.8177778 13.1364444,16.2176667 14.1631111,15.1482222 C15.191,14.036 15.8326667,12.496 15.8326667,10.7408889 L15.8326667,10.7408889 Z M20.3683333,10.7408889 L20.3683333,19.1277778 C20.3683333,20.3683333 19.3404444,21.3962222 18.0986667,21.3962222 C16.9864444,21.3962222 16.1308889,20.5834444 15.8742222,19.5555556 C14.2486667,20.7117778 12.3236667,21.3962222 10.1835556,21.3962222 C7.27344444,21.3962222 4.74955556,20.1984444 2.90888889,18.2722222 C1.06944444,16.3044444 0,13.651 0,10.7408889 C0,7.788 1.06944444,5.13577778 2.90888889,3.20955556 C4.74955556,1.24177778 7.27344444,0 10.1835556,0 C12.3236667,0 14.2486667,0.728444444 15.8742222,1.88344444 C16.1308889,0.812777778 16.9864444,0 18.0986667,0 C19.3404444,0 20.3683333,1.02788889 20.3683333,2.31122222 L20.3683333,10.7408889 Z" id="Fill-9" fill="#FFFFFF" mask="url(#mask-6)"></path>
                </g>
                <path d="M74.8468228,3.36719373 L74.8333455,3.35188617 C73.5909853,1.95889893 71.2630913,1.18586755 69.3848485,2.50359266 C67.9427795,3.59935827 66.9393347,5.0484732 66.4553778,5.74496682 C66.3990183,5.8266071 66.3487848,5.89931797 66.3034521,5.96309944 L66.2813984,5.99371454 C66.1601028,6.16975139 66.0375821,6.35089076 65.9138362,6.53203013 C64.7915463,8.18779701 63.5197811,10.0629721 61.9662182,10.249214 C61.8534991,10.263246 61.74078,10.2670728 61.6366374,10.2619703 C61.3928212,10.2479384 61.161257,10.3895333 61.0558891,10.6216978 C60.9541969,10.8474842 60.9921784,11.1013344 61.1624822,11.2926788 C61.9564165,12.1856194 63.1963263,12.8247097 64.4778932,12.8247097 C65.2019907,12.8247097 65.9383403,12.620609 66.61588,12.1447992 C68.0554986,11.0515849 69.0601686,9.60246996 69.5429003,8.90597633 C69.600485,8.82306043 69.6507185,8.75034956 69.6972764,8.68529246 L69.7193301,8.65595298 C69.8406256,8.47864051 69.9631464,8.29877677 70.0868923,8.11636177 C71.2091822,6.46187051 72.4809474,4.58669538 74.0332851,4.40045349 C74.1496798,4.38642157 74.2599485,4.38131905 74.3628659,4.3876972 C74.6103578,4.40300475 74.8394715,4.26013427 74.9436141,4.02796973 C75.0453064,3.80218333 75.0073249,3.54833309 74.8468228,3.36719373" id="Fill-12" fill="#FFFFFF"></path>
            </g>
        </g>
    </g>
</svg>