<?xml version="1.0" encoding="utf-8"?>
<!-- Generator: Adobe Illustrator 26.0.1, SVG Export Plug-In . SVG Version: 6.00 Build 0)  -->
<svg version="1.2" baseProfile="tiny-ps" id="Layer_1" xmlns="http://www.w3.org/2000/svg" xmlns:xlink="http://www.w3.org/1999/xlink"
	 viewBox="0 0 100 100"  xml:space="preserve">
<title>Ualá - El Lado Bueno de tu Plata</title>
<rect fill="#FFFFFF" width="100" height="100"/>
<path fill="#FF6766" d="M60.1,13.8c4.8,0,7.6,2.4,9,4.2c0.4,0.5,0,1-0.6,0.8c-0.5-0.1-0.9-0.2-1.5-0.2c-10.8,0-13.1,27.4-27.1,27.4
	c-4.8,0-7.6-2.4-9-4.2c-0.4-0.5-0.2-1,0.4-0.9c0.5,0.1,1.2,0.3,1.7,0.3C43.9,41.3,45.8,13.8,60.1,13.8z"/>
<path fill="#3E6BFD" d="M25.9,29.1c0,6.7,0.7,17.8,11.6,19c0.5,0.1,0.5,0.7,0,0.8c-1.1,0.2-1.9,0.3-3.7,0.3
	c-9.4,0-19.4-7.3-19.4-20.2c0-2.6,2.1-5.6,5.6-5.6C23.9,23.5,25.9,26.3,25.9,29.1z"/>
<path fill="#3E6BFD" d="M74.3,30.8c0-6.7-0.7-17.8-11.6-19c-0.5-0.1-0.5-0.7,0-0.8c1.1-0.2,1.9-0.3,3.7-0.3
	c9.4,0,19.4,7.3,19.4,20.2c0,2.6-2.1,5.6-5.6,5.6C76.3,36.4,74.3,33.6,74.3,30.8z"/>
<path fill="#3E6BFD" d="M22.6,89.4c-4.6,0-8.3-3.8-8.3-8.3l0-9.6c0-1.1,1-2.1,2.1-2.1c1.2,0,2.1,1,2.1,2.1l0,9.6
	c0,2.3,1.8,4.1,4.1,4.1c2.3,0,4.2-1.8,4.2-4.1l0-9.6c0-1.1,0.9-2.1,2.1-2.1c1.1,0,2.2,1,2.2,2.1l0,9.6
	C31.1,85.6,27.2,89.4,22.6,89.4z"/>
<path fill="#3E6BFD" d="M54,79.4l0,7.8c0,1.2-1,2.1-2.1,2.1c-1,0-1.8-0.8-2.1-1.7c-1.5,1.1-3.3,1.7-5.3,1.7c-2.7,0-5.1-1.1-6.8-2.9
	c-1.7-1.8-2.7-4.3-2.7-7c0-2.8,1-5.2,2.7-7c1.7-1.8,4.1-3,6.8-3c2,0,3.8,0.7,5.3,1.8c0.2-1,1-1.8,2.1-1.8c1.2,0,2.1,1,2.1,2.2V79.4z
	 M49.7,79.4c0-1.7-0.6-3.1-1.6-4.1c-1-1.1-2.3-1.6-3.7-1.6c-1.4,0-2.8,0.6-3.7,1.6c-1,1-1.5,2.4-1.5,4.1c0,1.6,0.6,3.1,1.5,4.1
	c0.9,1,2.3,1.6,3.7,1.6c1.4,0,2.8-0.6,3.7-1.6C49.1,82.5,49.7,81.1,49.7,79.4z"/>
<path fill="#3E6BFD" d="M60.7,54.1c1.2,0,2.2,1,2.2,2.2l0,30.9c0,1.2-1,2.2-2.2,2.2c-1.2,0-2.2-1-2.2-2.2l0-30.9
	C58.5,55.1,59.5,54.1,60.7,54.1z"/>
<path fill="#3E6BFD" d="M85.7,79.4v7.8c0,1.2-1,2.1-2.1,2.1c-1,0-1.8-0.8-2.1-1.7c-1.5,1.1-3.3,1.7-5.3,1.7c-2.7,0-5.1-1.1-6.8-2.9
	c-1.7-1.8-2.7-4.3-2.7-7c0-2.8,1-5.2,2.7-7c1.7-1.8,4.1-3,6.8-3c2,0,3.8,0.7,5.3,1.8c0.2-1,1-1.8,2.1-1.8c1.2,0,2.1,1,2.1,2.2V79.4z
	 M81.5,79.4c0-1.7-0.6-3.1-1.6-4.1c-1-1.1-2.3-1.6-3.7-1.6c-1.4,0-2.8,0.6-3.7,1.6c-1,1-1.5,2.4-1.5,4.1c0,1.6,0.6,3.1,1.5,4.1
	c0.9,1,2.3,1.6,3.7,1.6c1.4,0,2.8-0.6,3.7-1.6C80.9,82.5,81.5,81.1,81.5,79.4z"/>
<path fill="#FF6766" d="M84.5,57L84.5,57c-1.2-1.3-3.3-2-5.1-0.8c-1.3,1-2.3,2.3-2.7,2.9c-0.1,0.1-0.1,0.1-0.1,0.2l0,0
	c-0.1,0.2-0.2,0.3-0.3,0.5c-1,1.5-2.2,3.2-3.7,3.3c-0.1,0-0.2,0-0.3,0c-0.2,0-0.4,0.1-0.5,0.3c-0.1,0.2-0.1,0.4,0.1,0.6
	c0.7,0.8,1.9,1.4,3.1,1.4c0.7,0,1.4-0.2,2-0.6c1.3-1,2.3-2.3,2.7-2.9c0.1-0.1,0.1-0.1,0.1-0.2l0,0c0.1-0.2,0.2-0.3,0.3-0.5
	c1-1.5,2.2-3.2,3.7-3.3c0.1,0,0.2,0,0.3,0c0.2,0,0.4-0.1,0.5-0.3C84.7,57.4,84.6,57.2,84.5,57z"/>
</svg>
