<!-- Generator: Adobe Illustrator 24.0.3, SVG Export Plug-In  -->
<svg version="1.1" xmlns="http://www.w3.org/2000/svg" xmlns:xlink="http://www.w3.org/1999/xlink" x="0px" y="0px" viewBox="0 0 48 48" style="enable-background:new 0 0 48 48;" xml:space="preserve">
<style type="text/css">
	.st0{fill:none;}
	.st1{fill:url(#SVGID_1_);}
	.st2{fill:#FFFFFF;stroke:#FF8382;stroke-width:0.5019;stroke-linecap:round;stroke-miterlimit:10;}
	.st3{fill:#FFB3B2;stroke:#FFB3B2;stroke-width:0.5019;stroke-miterlimit:10;}
	.st4{fill:#FE6767;}
	.st5{fill:#406DFB;}
	.st6{fill:#FF8382;stroke:#FF8382;stroke-width:0.5019;stroke-miterlimit:10;}
	.st7{fill:none;stroke:#FF8382;stroke-width:0.5019;stroke-linecap:round;stroke-miterlimit:10;}
	.st8{fill:#FFDE73;}
	.st9{fill:#FFB450;}
	.st10{fill:url(#SVGID_2_);}
</style>
<defs>
</defs>
<rect class="st0" width="48" height="48"/>
<g>
	<linearGradient id="SVGID_1_" gradientUnits="userSpaceOnUse" x1="1.818989e-12" y1="24" x2="48" y2="24">
		<stop  offset="0" style="stop-color:#FFFFFF"/>
		<stop  offset="0.3078" style="stop-color:#EDF2FF"/>
		<stop  offset="0.6482" style="stop-color:#E2EAFF"/>
		<stop  offset="1" style="stop-color:#DEE7FF"/>
	</linearGradient>
	<path class="st1" d="M31.2,4C17,5-1.3,20.6,0.1,35s33.4,10.2,43.7-2.9C51.7,22,49.1,2.8,31.2,4z"/>
	<g>
		<path class="st2" d="M35,41.1H16.4c-0.7,0-1.3-0.6-1.3-1.3V9c0-0.7,0.6-1.3,1.3-1.3H35c0.7,0,1.3,0.6,1.3,1.3v30.8
			C36.2,40.5,35.7,41.1,35,41.1z"/>
		<path class="st3" d="M28.6,21.3c0,0,1.8,0.9,4,2.5c2.5,1.7,3.6,3.1,3.6,3.1v-7.6L28.6,21.3"/>
		<g>
			<path class="st4" d="M18.8,38.3c0.3,0.1,0.5-0.1,0.6-0.3c0.2-0.2,0.3-0.5,0.4-0.7c0.1-0.3,0.3-0.5,0.4-0.8
				c0.2-0.3,0.5-0.5,0.9-0.5c0.3,0,0.5,0.1,0.6,0.3c0,0,0,0,0,0.1c0,0-0.1,0-0.1,0c-0.2,0-0.4,0-0.5,0.2c-0.2,0.2-0.4,0.5-0.5,0.8
				c-0.1,0.3-0.3,0.6-0.5,0.8c-0.2,0.3-0.4,0.5-0.8,0.5c-0.3,0-0.5-0.1-0.7-0.3C18.7,38.4,18.7,38.4,18.8,38.3
				C18.7,38.3,18.8,38.3,18.8,38.3z"/>
			<path class="st5" d="M19,39c-0.8,0-1.4-0.6-1.5-1.4c0-0.1,0-0.2,0-0.3c0-0.3,0.2-0.5,0.5-0.5c0.3,0,0.4,0.2,0.4,0.5
				c0,0.3,0,0.7,0.1,1c0.1,0.3,0.4,0.5,0.7,0.6c0,0,0.1,0,0.1,0c0,0.1-0.1,0-0.1,0C19.1,39,19,39,19,39z"/>
			<path class="st5" d="M21.5,35.7c0.8,0,1.4,0.6,1.5,1.4c0,0.1,0,0.2,0,0.4c0,0.3-0.2,0.5-0.5,0.5c-0.3,0-0.5-0.2-0.5-0.5
				c0-0.3,0-0.7-0.1-1c-0.1-0.3-0.4-0.5-0.7-0.6c0,0-0.1,0-0.1,0c0-0.1,0.1,0,0.1,0C21.4,35.7,21.5,35.7,21.5,35.7z"/>
		</g>
		<path class="st6" d="M15.1,28.9V9c0-0.7,0.6-1.3,1.3-1.3H35c0.7,0,1.3,0.6,1.3,1.3v12.7c0,0-3.7-1.3-9.6,0
			C19.5,23.2,15.1,28.9,15.1,28.9z"/>
		<path class="st7" d="M35,41.1H16.4c-0.7,0-1.3-0.6-1.3-1.3V9c0-0.7,0.6-1.3,1.3-1.3H35c0.7,0,1.3,0.6,1.3,1.3v30.8
			C36.2,40.5,35.7,41.1,35,41.1z"/>
		<g>
			<circle class="st8" cx="32.3" cy="37.4" r="1.7"/>
			<circle class="st4" cx="29.8" cy="37.4" r="1.7"/>
			<path class="st9" d="M30.5,37.4c0,0.5,0.2,0.9,0.5,1.2c0.3-0.3,0.5-0.8,0.5-1.2c0-0.5-0.2-0.9-0.5-1.2
				C30.7,36.4,30.5,36.9,30.5,37.4z"/>
		</g>
	</g>
</g>
</svg>
