<?xml version="1.0" encoding="utf-8"?>
<!-- Generator: Adobe Illustrator 24.0.3, SVG Export Plug-In . SVG Version: 6.00 Build 0)  -->
<svg version="1.1" id="Layer_1" xmlns="http://www.w3.org/2000/svg" xmlns:xlink="http://www.w3.org/1999/xlink" x="0px" y="0px"
	 viewBox="0 0 48 48" style="enable-background:new 0 0 48 48;" xml:space="preserve">
<style type="text/css">
	.st0{fill:#FFFFFF;}
	.st1{fill:#3564FD;}
	.st2{fill:#F6F6F6;}
	.st3{clip-path:url(#SVGID_1_);fill-rule:evenodd;clip-rule:evenodd;fill:#FFB3B2;}
	.st4{clip-path:url(#SVGID_1_);fill-rule:evenodd;clip-rule:evenodd;fill:#FF6766;}
	.st5{fill:#FF6766;}
	.st6{opacity:0.9;fill:#3E6BFD;}
	.st7{fill:#3E6BFD;}
</style>
<g>
	<g>
		<circle class="st0" cx="24" cy="24" r="23.8"/>
		<path class="st1" d="M24,0.5C37,0.5,47.5,11,47.5,24S37,47.5,24,47.5S0.5,37,0.5,24S11,0.5,24,0.5 M24,0C10.7,0,0,10.7,0,24
			s10.7,24,24,24s24-10.7,24-24S37.3,0,24,0L24,0z"/>
	</g>
	<g>
		<path class="st2" d="M25.1,19.8c0.5,0,0.9,0.3,1,0.5c0,0.1,0,0.1-0.1,0.1c-0.1,0-0.1,0-0.2,0c-1.2,0-1.5,3.1-3.1,3.1
			c-0.5,0-0.9-0.3-1-0.5c0-0.1,0-0.1,0-0.1c0.1,0,0.1,0,0.2,0C23.3,22.9,23.5,19.8,25.1,19.8z"/>
		<path class="st2" d="M21.2,21.6c0,0.8,0.1,2.1,1.3,2.2c0.1,0,0.1,0.1,0,0.1c-0.1,0-0.2,0-0.4,0c-1.1,0-2.2-0.8-2.2-2.3
			c0-0.3,0.2-0.6,0.6-0.6C20.9,20.9,21.2,21.2,21.2,21.6z"/>
		<path class="st2" d="M26.7,21.7c0-0.8-0.1-2.1-1.3-2.2c-0.1,0-0.1-0.1,0-0.1c0.1,0,0.2,0,0.4,0c1.1,0,2.2,0.8,2.2,2.3
			c0,0.3-0.2,0.6-0.6,0.6C27,22.4,26.7,22.1,26.7,21.7z"/>
	</g>
	<g>
		<g>
			<g>
				<defs>
					<path id="SVGID_16_" d="M31.3,39.9H16.6c-1.5,0-2.7-1.2-2.7-2.7V10.8c0-1.5,1.2-2.7,2.7-2.7h14.7c1.5,0,2.7,1.2,2.7,2.7v26.4
						C34,38.7,32.8,39.9,31.3,39.9z"/>
				</defs>
				<use xlink:href="#SVGID_16_"  style="overflow:visible;fill:#FFFFFF;"/>
				<clipPath id="SVGID_1_">
					<use xlink:href="#SVGID_16_"  style="overflow:visible;"/>
				</clipPath>
				<path class="st3" d="M34,16.8c-3.5,0.1-6.9,0.8-9.9,2.2c4,1.8,7.4,4.6,9.9,8.1V16.8z"/>
				<path class="st4" d="M13.8,8.9v23.7c4.5-6.4,11.8-10.7,20.2-10.8V8.9c0-0.8-0.6-1.4-1.3-1.4H15.2C14.4,7.5,13.8,8.1,13.8,8.9"/>
				
					<use xlink:href="#SVGID_16_"  style="overflow:visible;fill:none;stroke:#3564FD;stroke-width:0.48;stroke-linecap:round;stroke-linejoin:round;stroke-miterlimit:10;"/>
			</g>
			<g>
				<path class="st5" d="M21.2,33.8c0.5,0,0.8,0.3,1,0.5c0,0.1,0,0.1-0.1,0.1c0,0-0.1,0-0.2,0c-1.2,0-1.4,3-2.9,3
					c-0.5,0-0.8-0.3-1-0.5c0-0.1,0-0.1,0-0.1c0.1,0,0.1,0,0.2,0C19.5,36.8,19.7,33.8,21.2,33.8z"/>
				<path class="st6" d="M17.5,35.4c0,0.7,0.1,1.9,1.3,2.1c0.1,0,0.1,0.1,0,0.1c-0.1,0-0.2,0-0.4,0c-1,0-2.1-0.8-2.1-2.2
					c0-0.3,0.2-0.6,0.6-0.6C17.3,34.8,17.5,35.1,17.5,35.4z"/>
				<path class="st7" d="M22.8,35.6c0-0.7-0.1-1.9-1.3-2.1c-0.1,0-0.1-0.1,0-0.1c0.1,0,0.2,0,0.4,0c1,0,2.1,0.8,2.1,2.2
					c0,0.3-0.2,0.6-0.6,0.6C23,36.2,22.8,35.9,22.8,35.6z"/>
			</g>
			<g>
				<path class="st0" d="M27.2,12.5c0.1,0.1,0.1,0.2,0.2,0.3c0,0.1,0.1,0.2,0.1,0.4c0,0.1,0,0.3-0.1,0.4c0,0.1-0.1,0.2-0.2,0.3
					c-0.1,0.1-0.1,0.3,0.1,0.4c0.1,0.1,0.3,0.1,0.4-0.1c0.1-0.1,0.2-0.3,0.3-0.5c0.1-0.2,0.1-0.4,0.1-0.6c0-0.2,0-0.4-0.1-0.6
					c-0.1-0.2-0.1-0.3-0.3-0.5c-0.1-0.1-0.3-0.2-0.4-0.1C27.1,12.2,27.1,12.4,27.2,12.5 M28.2,11.9c0.2,0.4,0.4,0.8,0.4,1.2
					c0,0.5-0.1,0.9-0.4,1.2c-0.1,0.1,0,0.3,0.1,0.4c0.1,0.1,0.3,0,0.4-0.1c0.3-0.5,0.4-1,0.4-1.6c0-0.6-0.2-1.1-0.4-1.6
					c-0.1-0.1-0.3-0.2-0.4-0.1C28.1,11.6,28.1,11.8,28.2,11.9 M29.3,11.4c0.3,0.5,0.5,1.1,0.5,1.8c0,0.7-0.2,1.3-0.5,1.8
					c-0.1,0.1,0,0.3,0.1,0.4c0.1,0.1,0.3,0,0.4-0.1c0.4-0.6,0.6-1.3,0.6-2.1c0-0.8-0.2-1.5-0.6-2.1c-0.1-0.1-0.3-0.2-0.4-0.1
					C29.2,11,29.2,11.2,29.3,11.4 M30.3,10.8c0.4,0.7,0.6,1.5,0.6,2.4c0,0.9-0.2,1.7-0.6,2.4c-0.1,0.1,0,0.3,0.1,0.4
					c0.1,0.1,0.3,0,0.4-0.1c0.4-0.8,0.7-1.7,0.7-2.7c0-1-0.3-1.9-0.7-2.7c-0.1-0.1-0.3-0.2-0.4-0.1C30.3,10.5,30.3,10.7,30.3,10.8"
					/>
			</g>
		</g>
	</g>
</g>
</svg>
