<?xml version="1.0" encoding="utf-8"?>
<!-- Generator: Adobe Illustrator 24.0.3, SVG Export Plug-In . SVG Version: 6.00 Build 0)  -->
<svg version="1.1" id="Layer_1" xmlns="http://www.w3.org/2000/svg" xmlns:xlink="http://www.w3.org/1999/xlink" x="0px" y="0px"
	 viewBox="0 0 48 48" style="enable-background:new 0 0 48 48;" xml:space="preserve">
<style type="text/css">
	.st0{fill:#FFFFFF;}
	.st1{fill:#3564FD;}
	.st2{fill:none;stroke:#3564FD;stroke-width:0.4797;stroke-linecap:round;stroke-linejoin:round;stroke-miterlimit:10;}
	.st3{fill:none;stroke:#3564FD;stroke-width:1.4391;stroke-linecap:round;stroke-linejoin:round;stroke-miterlimit:10;}
	.st4{fill:#FFFFFF;stroke:#3564FD;stroke-width:0.4797;stroke-linecap:round;stroke-linejoin:round;stroke-miterlimit:10;}
</style>
<g>
	<circle class="st0" cx="24" cy="24" r="23.8"/>
	<path class="st1" d="M24,0.5C37,0.5,47.5,11,47.5,24S37,47.5,24,47.5S0.5,37,0.5,24S11,0.5,24,0.5 M24,0C10.7,0,0,10.7,0,24
		s10.7,24,24,24c13.3,0,24-10.7,24-24S37.3,0,24,0L24,0z"/>
</g>
<path class="st2" d="M33.8,39.1c0,2-1.6,3.7-3.6,3.7H18.4c-2,0-3.6-1.6-3.6-3.7v-30c0-2,1.6-3.7,3.6-3.7h2.2c0,0,0,0.9,0,1
	c0,0.3,0.2,0.5,0.5,0.5h6.2c0.3,0,0.5-0.2,0.5-0.5c0-0.1,0-0.9,0-1h2.5c2,0,3.6,1.6,3.6,3.7V39.1z"/>
<line class="st2" x1="27.8" y1="5.4" x2="20.6" y2="5.4"/>
<g>
	<line class="st3" x1="18.8" y1="24" x2="29.8" y2="24"/>
	<polyline class="st3" points="26.5,27.8 29.8,24 26.5,20.7 	"/>
</g>
<line class="st4" x1="33.8" y1="39.1" x2="14.8" y2="39.1"/>
<path class="st1" d="M27.2,6.9h-5.8c-0.4,0-0.7-0.3-0.7-0.7v0c0-0.4,0.3-0.7,0.7-0.7h5.8c0.4,0,0.7,0.3,0.7,0.7v0
	C27.9,6.6,27.6,6.9,27.2,6.9z"/>
</svg>
