<?xml version="1.0" encoding="utf-8"?>
<!-- Generator: Adobe Illustrator 24.0.3, SVG Export Plug-In . SVG Version: 6.00 Build 0)  -->
<svg version="1.1" id="Layer_1" xmlns="http://www.w3.org/2000/svg" xmlns:xlink="http://www.w3.org/1999/xlink" x="0px" y="0px"
	 viewBox="0 0 48 48" style="enable-background:new 0 0 48 48;" xml:space="preserve">
<style type="text/css">
	.st0{fill:#FFFFFF;}
	.st1{fill:#3564FD;}
	.st2{fill:none;stroke:#3564FD;stroke-width:0.4797;stroke-linecap:round;stroke-linejoin:round;stroke-miterlimit:10;}
	.st3{fill:#3564FD;stroke:#3564FD;stroke-width:0.4797;stroke-miterlimit:10;}
</style>
<g>
	<g>
		<path class="st0" d="M24,47.8C10.9,47.8,0.2,37.1,0.2,24S10.9,0.2,24,0.2S47.8,10.9,47.8,24S37.1,47.8,24,47.8z"/>
		<path class="st1" d="M24,0.5C37,0.5,47.5,11,47.5,24S37,47.5,24,47.5S0.5,37,0.5,24S11,0.5,24,0.5 M24,0C10.7,0,0,10.7,0,24
			s10.7,24,24,24s24-10.7,24-24S37.3,0,24,0L24,0z"/>
	</g>
	<path class="st2" d="M41.2,17.4v13.3c0,1.7-1.4,3-3,3H9.9c-1.7,0-3-1.4-3-3V17.4c0-1.7,1.4-3,3-3h28.3
		C39.8,14.3,41.2,15.7,41.2,17.4z"/>
	<g>
		<path class="st3" d="M27.1,26.8c-0.1,0.3-0.3,0.5-0.6,0.8c-0.2,0.2-0.5,0.4-0.9,0.5c-0.2,0.1-0.5,0.2-0.8,0.2
			c-0.2,0-0.3,0.2-0.3,0.4v0.5c0,0.2-0.2,0.4-0.4,0.4h0c-0.2,0-0.4-0.2-0.4-0.4v-0.6c0-0.2-0.2-0.4-0.3-0.4
			c-0.5-0.1-0.9-0.2-1.3-0.4c-0.4-0.2-0.8-0.4-1.1-0.7c-0.2-0.1-0.2-0.4-0.1-0.6l0.1-0.1c0.1-0.2,0.4-0.2,0.6-0.1
			c0.3,0.2,0.6,0.4,0.9,0.6c0.3,0.1,0.5,0.2,0.9,0.3c0.3,0.1,0.5-0.1,0.5-0.4v-2.5c0-0.2-0.1-0.3-0.3-0.4c-0.8-0.2-1.4-0.5-1.8-0.9
			c-0.4-0.4-0.7-0.9-0.7-1.6c0-0.3,0.1-0.7,0.2-0.9c0.1-0.3,0.3-0.5,0.6-0.7c0.2-0.2,0.5-0.4,0.9-0.5c0.2-0.1,0.5-0.2,0.8-0.2
			c0.2,0,0.3-0.2,0.3-0.4l0,0c0-0.2,0.2-0.4,0.4-0.4h0c0.2,0,0.4,0.2,0.4,0.4v0c0,0.2,0.2,0.4,0.3,0.4c0.4,0.1,0.7,0.2,1,0.3
			c0.3,0.1,0.6,0.3,0.8,0.5c0.2,0.1,0.2,0.4,0.1,0.6l-0.1,0.1c-0.1,0.2-0.4,0.2-0.6,0.1c-0.2-0.2-0.4-0.3-0.6-0.4
			c-0.2-0.1-0.3-0.1-0.5-0.2c-0.3-0.1-0.5,0.1-0.5,0.4V23c0,0.2,0.1,0.3,0.3,0.4c0.8,0.2,1.5,0.5,1.9,0.9c0.4,0.4,0.7,0.9,0.7,1.6
			C27.3,26.2,27.2,26.5,27.1,26.8z M23.7,20c-0.3,0-0.5,0.1-0.7,0.1c-0.2,0.1-0.4,0.2-0.6,0.3c-0.2,0.1-0.3,0.3-0.4,0.5
			c-0.1,0.2-0.1,0.4-0.1,0.6c0,0.2,0,0.4,0.1,0.5c0.1,0.2,0.1,0.3,0.3,0.4c0.1,0.1,0.3,0.3,0.5,0.4c0.1,0,0.2,0.1,0.3,0.1
			c0.3,0.1,0.5-0.1,0.5-0.4V20z M26.2,25.4c-0.1-0.2-0.1-0.3-0.3-0.4c-0.1-0.1-0.3-0.2-0.6-0.4c-0.1,0-0.2-0.1-0.4-0.1
			c-0.3-0.1-0.5,0.1-0.5,0.4V27c0,0.2,0.2,0.4,0.5,0.4c0.3-0.1,0.6-0.2,0.9-0.4c0.3-0.3,0.5-0.6,0.5-1.1
			C26.3,25.7,26.2,25.5,26.2,25.4z"/>
	</g>
</g>
</svg>
