<svg version="1.1" xmlns="http://www.w3.org/2000/svg" xmlns:xlink="http://www.w3.org/1999/xlink" x="0px" y="0px" viewBox="0 0 48 48" style="enable-background:new 0 0 48 48;" xml:space="preserve">
<style type="text/css">
	.st0{fill:none;}
	.st1{fill:url(#SVGID_1_);}
	.st2{fill:#FFFFFF;stroke:#3E6BFD;stroke-width:0.5019;stroke-linecap:round;stroke-miterlimit:10;}
	.st3{fill:#8EA8FF;}
	.st4{fill:none;stroke:#3E6BFD;stroke-width:0.5019;stroke-linecap:round;stroke-miterlimit:10;}
	.st5{fill:#FFFFFF;}
	.st6{fill:url(#SVGID_2_);}
</style>
<defs>
</defs>
<g>
	<linearGradient id="SVGID_1_" gradientUnits="userSpaceOnUse" x1="9.094947e-13" y1="24" x2="48" y2="24">
		<stop  offset="0" style="stop-color:#FFFFFF"/>
		<stop  offset="0.3078" style="stop-color:#EDF2FF"/>
		<stop  offset="0.6482" style="stop-color:#E2EAFF"/>
		<stop  offset="1" style="stop-color:#DEE7FF"/>
	</linearGradient>
	<path class="st1" d="M31.2,4C17,5-1.3,20.6,0.1,35s33.4,10.2,43.7-2.9C51.7,22,49.1,2.8,31.2,4z"/>
	<g>
		<g>
			<path class="st2" d="M46.8,36.1H6c-0.5,0-1-0.4-1-1V14.9c0-0.5,0.4-1,1-1h40.8c0.5,0,1,0.4,1,1v20.2
				C47.7,35.7,47.3,36.1,46.8,36.1z"/>
			<path class="st3" d="M35.7,25c0,5.3-4.3,9.5-9.5,9.5s-9.5-4.3-9.5-9.5s4.3-9.5,9.5-9.5c3.3,0,6.3,1.7,8,4.3
				c0.1,0.2,0.2,0.4,0.3,0.6c0.1,0.2,0.2,0.4,0.3,0.6c0.4,0.9,0.7,1.8,0.8,2.8c0,0.1,0,0.2,0,0.3c0,0.1,0,0.3,0,0.4
				C35.7,24.6,35.7,24.8,35.7,25z"/>
			<polyline class="st4" points="34.1,34.4 43.8,34.4 45.7,32 45.7,18 43.8,15.7 34.1,15.7 			"/>
			<polyline class="st4" points="18,15.7 9,15.7 7,18 7,32 9,34.4 18,34.4 			"/>
			<path class="st4" d="M19.6,15.7"/>
			<path class="st4" d="M18,15.7"/>
		</g>
		<path class="st5" d="M26.4,24.7c-1-0.4-1.8-0.7-1.8-1.4c0-0.7,0.6-1.2,1.6-1.2c0.9,0,1.4,0.3,1.9,0.8l0.1,0.1l0.6-0.6l-0.1-0.1
			c-0.5-0.5-1.1-0.9-2-1v-1.8h-0.9v1.8c-1.3,0.2-2.2,1-2.2,2.1c0,1.3,1.3,1.8,2.4,2.2c1,0.4,2,0.8,2,1.6c0,0.8-0.7,1.3-1.8,1.3
			c-1.1,0-1.9-0.5-2.4-0.9l-0.1-0.1l-0.5,0.7l0.1,0.1c0.3,0.3,1.2,0.9,2.5,1.1v1.9h0.9v-1.9c1.4-0.1,2.4-1,2.4-2.2
			C29,25.7,27.6,25.1,26.4,24.7z"/>
	</g>
</g>
</svg>
