<svg id="svg" version="1.1" xmlns="http://www.w3.org/2000/svg" xmlns:xlink="http://www.w3.org/1999/xlink" width="400" height="400" viewBox="0, 0, 400,400"><g id="svgg"><path id="path0" d="M157.334 182.243 C 156.234 183.921,155.974 214.066,157.049 215.255 C 157.797 216.081,158.776 215.955,160.043 214.871 C 161.146 213.926,161.213 187.052,160.119 184.308 C 158.973 181.435,158.227 180.882,157.334 182.243 M173.600 192.231 C 170.794 193.433,168.575 196.437,167.997 199.819 C 167.028 205.482,168.063 211.499,170.172 212.460 C 170.729 212.714,171.283 213.230,171.403 213.608 C 172.011 215.526,180.242 217.259,182.776 216.003 C 183.119 215.832,183.921 215.448,184.557 215.149 C 187.101 213.951,188.603 209.765,186.829 208.816 C 185.758 208.242,185.093 208.595,184.234 210.189 C 182.793 212.865,177.386 213.230,173.400 210.921 C 171.273 209.688,172.169 196.400,174.380 196.400 C 174.777 196.400,175.719 196.142,176.472 195.828 C 178.857 194.831,184.400 196.070,184.400 197.599 C 184.400 198.263,185.576 199.600,186.160 199.600 C 188.533 199.600,187.732 193.920,185.221 192.936 C 184.439 192.630,183.487 192.204,183.105 191.990 C 182.001 191.370,175.209 191.542,173.600 192.231 M201.000 191.975 C 200.560 192.178,199.628 192.356,198.929 192.372 C 197.215 192.410,196.641 193.091,196.032 195.812 C 195.742 197.111,195.137 198.483,194.647 198.958 C 191.880 201.635,192.327 207.379,195.573 210.863 C 196.017 211.340,196.579 212.329,196.820 213.060 C 197.406 214.835,200.747 216.400,203.952 216.400 C 208.707 216.400,211.534 215.278,212.379 213.056 C 212.616 212.433,213.136 211.837,213.535 211.733 C 217.039 210.817,217.286 197.515,213.828 195.940 C 213.271 195.686,212.696 195.101,212.550 194.639 C 212.085 193.165,210.345 192.001,208.600 191.998 C 207.720 191.996,205.830 191.907,204.400 191.800 C 202.970 191.693,201.440 191.772,201.000 191.975 M234.200 192.034 C 233.320 192.222,230.890 192.349,228.800 192.315 C 221.340 192.197,221.600 191.765,221.600 204.262 L 221.600 214.400 223.952 214.400 L 226.304 214.400 226.476 206.900 C 226.705 196.918,227.391 195.600,232.357 195.600 C 234.517 195.600,234.879 195.728,236.172 196.947 L 237.600 198.294 237.600 206.329 L 237.600 214.364 239.100 214.604 C 239.925 214.736,240.951 214.917,241.379 215.005 C 243.068 215.355,243.200 214.726,243.200 206.325 C 243.200 198.163,243.060 197.289,241.537 195.953 C 241.132 195.597,240.800 194.994,240.800 194.614 C 240.800 192.431,237.810 191.263,234.200 192.034 M208.798 196.745 C 213.078 200.183,212.572 208.977,207.946 211.581 C 204.948 213.269,199.600 212.178,199.600 209.880 C 199.600 209.175,198.263 206.400,197.923 206.400 C 197.363 206.400,197.573 202.544,198.198 201.346 C 198.526 200.716,198.796 199.801,198.798 199.313 C 198.807 195.801,205.487 194.085,208.798 196.745 " stroke="none" fill="#414141" fill-rule="evenodd"></path><path id="path1" d="M156.575 180.826 L 155.400 182.052 155.276 198.341 C 155.134 217.055,155.089 216.800,158.469 216.800 C 162.550 216.800,163.167 213.461,162.458 195.200 C 161.993 183.219,161.916 182.742,160.136 180.962 C 158.463 179.289,158.062 179.274,156.575 180.826 M160.119 184.308 C 161.213 187.052,161.146 213.926,160.043 214.871 C 156.541 217.869,156.346 216.993,156.482 198.931 C 156.624 180.190,157.336 177.329,160.119 184.308 M177.039 189.018 C 176.688 189.369,176.400 189.808,176.400 189.993 C 176.400 190.178,175.642 190.458,174.715 190.614 C 171.518 191.154,168.293 193.918,167.417 196.868 C 165.600 202.987,166.573 212.165,169.175 213.463 C 169.712 213.730,170.390 214.406,170.683 214.964 C 172.775 218.957,186.166 218.121,188.118 213.877 C 190.700 208.262,185.692 204.411,182.871 209.842 C 181.903 211.706,174.928 211.277,174.026 209.298 C 173.350 207.814,173.064 204.052,173.374 200.735 L 173.652 197.770 175.738 197.285 C 180.184 196.251,183.512 196.959,183.587 198.953 C 183.606 199.464,185.232 200.800,185.835 200.800 C 191.013 200.800,189.878 192.985,184.400 190.920 C 183.410 190.546,182.510 190.124,182.400 189.980 C 181.502 188.810,177.895 188.162,177.039 189.018 M203.400 189.333 C 202.520 189.570,201.708 189.893,201.596 190.050 C 201.484 190.208,200.854 190.455,200.196 190.601 C 196.697 191.374,195.068 192.646,194.637 194.943 C 194.479 195.786,194.085 196.446,193.658 196.582 C 190.900 197.457,190.728 210.462,193.463 211.366 C 193.869 211.500,194.740 212.522,195.400 213.637 C 196.967 216.285,196.914 216.251,200.616 217.018 C 205.615 218.054,211.240 217.268,212.600 215.343 C 213.040 214.720,214.089 213.562,214.931 212.768 C 218.239 209.652,217.943 195.996,214.534 194.443 C 214.020 194.209,213.600 193.752,213.600 193.429 C 213.600 192.599,211.263 190.943,209.600 190.594 C 208.830 190.433,207.722 189.963,207.138 189.550 C 205.966 188.722,205.718 188.707,203.400 189.333 M233.503 190.091 C 233.388 190.435,231.640 190.645,227.679 190.791 C 219.615 191.089,220.230 190.057,220.082 203.534 C 219.941 216.386,219.945 216.400,223.974 216.400 C 228.132 216.400,228.302 216.017,228.465 206.252 C 228.622 196.793,228.623 196.792,232.071 196.813 C 235.696 196.834,235.647 196.713,235.901 206.222 C 236.163 216.027,236.215 216.153,240.124 216.567 C 242.315 216.799,242.517 216.745,243.624 215.637 L 244.800 214.462 244.800 206.191 C 244.800 197.663,244.443 195.498,242.939 194.921 C 242.645 194.808,242.014 194.021,241.536 193.172 C 240.523 191.369,238.741 190.400,236.440 190.400 C 235.538 190.400,234.800 190.220,234.800 190.000 C 234.800 189.427,233.698 189.505,233.503 190.091 M183.105 191.990 C 183.487 192.204,184.439 192.630,185.221 192.936 C 187.732 193.920,188.533 199.600,186.160 199.600 C 185.576 199.600,184.400 198.263,184.400 197.599 C 184.400 196.070,178.857 194.831,176.472 195.828 C 175.719 196.142,174.777 196.400,174.380 196.400 C 172.169 196.400,171.273 209.688,173.400 210.921 C 177.386 213.230,182.793 212.865,184.234 210.189 C 185.093 208.595,185.758 208.242,186.829 208.816 C 188.603 209.765,187.101 213.951,184.557 215.149 C 183.921 215.448,183.119 215.832,182.776 216.003 C 180.242 217.259,172.011 215.526,171.403 213.608 C 171.283 213.230,170.729 212.714,170.172 212.460 C 166.595 210.830,166.721 198.749,170.355 194.823 C 173.072 191.889,180.131 190.320,183.105 191.990 M208.600 191.998 C 210.345 192.001,212.085 193.165,212.550 194.639 C 212.696 195.101,213.271 195.686,213.828 195.940 C 217.286 197.515,217.039 210.817,213.535 211.733 C 213.136 211.837,212.616 212.433,212.379 213.056 C 211.534 215.278,208.707 216.400,203.952 216.400 C 200.747 216.400,197.406 214.835,196.820 213.060 C 196.579 212.329,196.017 211.340,195.573 210.863 C 192.327 207.379,191.880 201.635,194.647 198.958 C 195.137 198.483,195.742 197.111,196.032 195.812 C 196.641 193.091,197.215 192.410,198.929 192.372 C 199.628 192.356,200.560 192.178,201.000 191.975 C 201.440 191.772,202.970 191.693,204.400 191.800 C 205.830 191.907,207.720 191.996,208.600 191.998 M239.558 192.760 C 240.241 193.399,240.800 194.233,240.800 194.614 C 240.800 194.994,241.132 195.597,241.537 195.953 C 243.060 197.289,243.200 198.163,243.200 206.325 C 243.200 214.726,243.068 215.355,241.379 215.005 C 240.951 214.917,239.925 214.736,239.100 214.604 L 237.600 214.364 237.600 206.329 L 237.600 198.294 236.172 196.947 C 234.879 195.728,234.517 195.600,232.357 195.600 C 227.391 195.600,226.705 196.918,226.476 206.900 L 226.304 214.400 223.952 214.400 L 221.600 214.400 221.600 204.262 C 221.600 191.765,221.340 192.197,228.800 192.315 C 230.890 192.349,233.320 192.222,234.200 192.034 C 237.218 191.389,238.237 191.527,239.558 192.760 M203.290 195.480 C 201.313 195.673,198.802 197.816,198.798 199.313 C 198.796 199.801,198.526 200.716,198.198 201.346 C 197.573 202.544,197.363 206.400,197.923 206.400 C 198.263 206.400,199.600 209.175,199.600 209.880 C 199.600 211.207,201.731 212.400,204.100 212.400 C 208.963 212.400,211.298 209.877,211.530 204.372 C 211.798 197.997,208.954 194.927,203.290 195.480 M207.400 197.513 C 207.840 197.891,208.424 198.700,208.697 199.311 C 208.970 199.922,209.465 200.527,209.797 200.654 C 210.789 201.035,210.637 206.062,209.605 206.995 C 209.168 207.391,208.597 208.304,208.337 209.024 C 207.611 211.032,203.356 212.078,201.577 210.687 C 199.917 209.389,199.668 199.240,201.252 197.449 C 202.046 196.552,206.332 196.597,207.400 197.513 " stroke="none" fill="#949494" fill-rule="evenodd"></path><path id="path2" d="M0.000 200.000 L 0.000 400.000 200.000 400.000 L 400.000 400.000 400.000 200.000 L 400.000 0.000 200.000 0.000 L 0.000 0.000 0.000 200.000 M160.079 178.795 C 160.453 178.798,161.244 179.250,161.838 179.800 C 162.431 180.350,163.051 180.800,163.215 180.800 C 164.281 180.800,164.936 184.459,165.164 191.681 C 165.425 199.959,166.092 202.462,166.528 196.803 C 166.886 192.154,168.008 190.868,172.025 190.504 C 174.170 190.310,174.400 190.200,174.400 189.373 C 174.400 185.964,183.549 185.784,184.730 189.171 C 185.055 190.103,185.438 190.370,186.780 190.597 C 189.175 191.001,189.649 191.959,189.732 196.558 C 189.813 201.095,189.470 201.567,186.071 201.587 C 183.589 201.602,182.857 201.060,182.515 198.955 L 182.280 197.503 179.371 197.689 C 176.766 197.856,176.332 198.007,175.209 199.130 C 172.894 201.444,173.093 207.600,175.482 207.600 C 175.790 207.600,176.304 208.230,176.626 209.000 C 177.209 210.396,177.218 210.400,179.805 210.400 L 182.400 210.400 182.406 209.100 C 182.416 206.909,182.857 206.600,185.965 206.600 C 189.621 206.600,189.809 206.818,189.763 210.989 C 189.703 216.390,189.028 217.251,184.400 217.824 C 183.190 217.974,181.750 218.399,181.200 218.768 C 178.769 220.399,178.149 220.455,176.878 219.155 C 175.922 218.178,175.263 217.908,173.351 217.714 C 169.002 217.271,166.400 214.467,166.400 210.222 C 166.400 209.220,166.241 208.400,166.047 208.400 C 165.552 208.400,165.212 209.873,165.205 212.040 C 165.193 216.245,163.509 217.600,158.296 217.600 C 154.094 217.600,154.340 218.865,154.481 197.912 C 154.616 177.703,154.575 177.895,158.600 178.641 C 159.040 178.722,159.706 178.792,160.079 178.795 M209.418 187.861 C 210.610 188.445,211.690 189.255,211.819 189.661 C 211.948 190.068,212.299 190.400,212.598 190.400 C 212.898 190.400,213.381 190.635,213.671 190.922 C 213.962 191.210,214.507 191.561,214.883 191.703 C 217.514 192.699,219.213 209.679,217.017 213.030 C 215.347 215.579,212.758 217.502,210.733 217.697 C 209.204 217.844,208.458 218.174,207.449 219.153 C 206.060 220.499,204.213 220.302,202.851 218.662 C 202.558 218.308,201.230 217.969,199.483 217.801 C 195.998 217.467,194.981 216.889,194.636 215.049 C 194.421 213.905,194.123 213.571,192.983 213.194 C 190.405 212.343,190.400 212.326,190.400 203.953 C 190.400 195.570,190.765 194.400,193.382 194.400 C 194.240 194.400,194.400 194.217,194.400 193.233 C 194.400 191.221,194.756 190.833,196.857 190.555 C 198.495 190.337,198.936 190.097,199.423 189.156 C 200.761 186.568,205.518 185.952,209.418 187.861 M238.492 188.387 C 239.093 188.681,239.690 189.254,239.819 189.661 C 239.948 190.067,240.393 190.400,240.807 190.400 C 241.221 190.400,241.704 190.625,241.880 190.900 C 242.056 191.175,242.560 191.592,243.000 191.826 C 245.195 192.995,245.566 194.997,245.584 205.774 C 245.604 218.025,245.787 217.600,240.492 217.600 C 234.428 217.600,234.411 217.567,234.404 205.480 L 234.400 197.560 232.100 197.680 L 229.800 197.800 229.600 206.936 C 229.359 217.956,229.535 217.600,224.317 217.600 C 218.357 217.600,218.403 217.705,218.422 204.000 C 218.435 194.371,218.712 191.375,219.660 190.614 C 219.957 190.376,220.401 189.826,220.647 189.391 C 221.383 188.087,227.936 188.222,229.369 189.570 C 230.327 190.471,230.400 190.484,230.400 189.759 C 230.400 187.182,234.582 186.473,238.492 188.387 M201.884 197.849 C 201.728 198.005,201.600 200.902,201.600 204.286 L 201.600 210.438 204.100 210.319 L 206.600 210.200 206.712 208.800 C 206.774 208.030,206.986 207.040,207.183 206.600 C 207.757 205.319,207.928 202.171,207.467 201.352 C 207.235 200.938,206.942 199.970,206.817 199.200 C 206.593 197.819,202.920 196.814,201.884 197.849 " stroke="none" fill="#c4c4c4" fill-rule="evenodd"></path><path id="path3" d="M156.858 179.838 C 154.883 181.235,154.800 182.005,154.800 199.001 C 154.800 212.692,154.885 214.957,155.426 215.784 C 156.180 216.935,157.901 217.602,159.000 217.170 C 159.621 216.927,159.470 216.850,158.329 216.828 C 155.109 216.767,155.135 216.919,155.276 198.341 L 155.400 182.052 156.575 180.826 C 158.062 179.274,158.463 179.289,160.136 180.962 C 161.916 182.742,161.993 183.219,162.458 195.200 C 162.999 209.136,162.700 213.995,161.200 215.600 C 159.733 217.171,160.381 217.144,162.186 215.559 C 163.522 214.385,163.600 214.180,163.600 211.807 C 163.600 210.427,163.870 208.651,164.200 207.862 C 164.957 206.049,164.957 201.725,164.200 200.400 C 163.769 199.646,163.625 197.760,163.614 192.745 C 163.593 182.896,160.605 177.189,156.858 179.838 M177.103 188.305 C 175.756 188.963,174.852 190.400,175.786 190.400 C 176.124 190.400,176.400 190.233,176.400 190.029 C 176.400 189.104,177.725 188.363,178.949 188.604 C 180.698 188.948,182.400 189.639,182.400 190.005 C 182.400 190.175,182.895 190.435,183.500 190.584 C 185.264 191.018,188.019 192.788,188.399 193.731 C 188.636 194.319,188.758 194.393,188.775 193.961 C 188.813 192.993,187.602 191.863,185.600 191.000 C 184.610 190.573,183.497 189.890,183.127 189.482 C 182.092 188.341,178.475 187.634,177.103 188.305 M201.594 189.126 C 201.047 189.569,200.745 190.076,200.922 190.254 C 201.099 190.432,201.369 190.396,201.522 190.175 C 202.270 189.095,205.934 188.698,207.152 189.566 C 208.285 190.372,209.200 190.643,209.200 190.171 C 209.200 188.523,203.333 187.716,201.594 189.126 M232.880 189.280 C 232.227 189.933,232.277 190.400,233.000 190.400 C 233.330 190.400,233.600 190.220,233.600 190.000 C 233.600 189.780,233.870 189.600,234.200 189.600 C 234.530 189.600,234.800 189.780,234.800 190.000 C 234.800 190.220,235.250 190.400,235.800 190.400 C 237.103 190.400,237.068 189.927,235.717 189.300 C 234.364 188.672,233.494 188.666,232.880 189.280 M210.400 190.692 C 211.503 191.040,213.600 192.834,213.600 193.429 C 213.600 193.752,214.017 194.207,214.526 194.439 C 215.035 194.671,215.750 195.342,216.115 195.930 C 216.597 196.707,216.782 196.813,216.789 196.316 C 216.795 195.939,216.514 195.399,216.164 195.116 C 215.244 194.370,214.084 193.161,213.078 191.900 C 212.561 191.252,211.706 190.738,211.000 190.651 C 210.340 190.570,210.070 190.588,210.400 190.692 M221.391 190.706 C 219.715 191.909,219.600 192.775,219.600 204.157 L 219.600 215.142 220.654 215.971 C 222.278 217.249,226.477 217.159,227.818 215.818 C 228.800 214.837,228.800 214.834,228.709 207.118 L 228.619 199.400 228.501 206.854 C 228.358 215.885,228.113 216.400,223.974 216.400 C 219.945 216.400,219.941 216.386,220.082 203.534 C 220.226 190.417,219.904 191.124,225.909 190.771 L 229.800 190.543 225.800 190.477 C 223.600 190.442,221.616 190.544,221.391 190.706 M239.437 191.029 C 240.118 191.365,241.064 192.332,241.539 193.178 C 242.015 194.024,242.642 194.807,242.933 194.919 C 243.224 195.031,243.776 195.725,244.159 196.461 L 244.855 197.800 244.597 196.600 C 244.456 195.940,243.811 194.860,243.165 194.200 C 242.519 193.540,241.466 192.415,240.826 191.700 C 240.185 190.985,239.333 190.404,238.931 190.409 C 238.436 190.415,238.600 190.616,239.437 191.029 M170.600 191.793 C 167.937 193.993,166.769 195.827,166.827 197.719 C 166.843 198.250,167.072 197.900,167.402 196.840 C 167.954 195.069,170.905 191.600,171.860 191.600 C 172.131 191.600,172.464 191.420,172.600 191.200 C 173.077 190.429,171.788 190.811,170.600 191.793 M196.600 191.283 C 195.734 191.780,194.833 192.807,194.813 193.321 C 194.806 193.497,195.205 193.221,195.700 192.706 C 196.195 192.192,197.050 191.565,197.600 191.313 C 198.150 191.061,198.330 190.847,198.000 190.839 C 197.670 190.831,197.040 191.031,196.600 191.283 M192.900 196.213 L 191.200 197.916 191.200 204.088 C 191.200 209.980,191.241 210.298,192.100 211.080 C 193.480 212.337,194.841 212.972,194.554 212.224 C 194.429 211.898,193.966 211.516,193.527 211.377 C 190.759 210.498,190.849 197.473,193.629 196.591 C 194.180 196.416,195.015 194.819,194.684 194.572 C 194.638 194.538,193.835 195.276,192.900 196.213 M188.927 196.858 C 188.974 199.414,188.501 200.226,186.744 200.612 C 186.083 200.757,185.634 200.967,185.745 201.078 C 187.244 202.578,189.943 198.937,189.297 196.287 L 188.886 194.600 188.927 196.858 M176.200 197.200 C 175.696 197.417,175.622 197.544,176.000 197.544 C 176.330 197.544,176.960 197.389,177.400 197.200 C 177.904 196.983,177.978 196.856,177.600 196.856 C 177.270 196.856,176.640 197.011,176.200 197.200 M179.300 197.087 C 179.905 197.178,180.895 197.178,181.500 197.087 C 182.105 196.995,181.610 196.920,180.400 196.920 C 179.190 196.920,178.695 196.995,179.300 197.087 M201.600 197.111 C 201.600 197.281,202.365 197.362,203.300 197.289 C 206.102 197.072,206.341 196.896,203.900 196.846 C 202.635 196.821,201.600 196.940,201.600 197.111 M206.400 197.181 C 206.400 197.412,206.576 197.600,206.792 197.600 C 207.007 197.600,207.534 198.287,207.963 199.127 C 208.778 200.726,209.869 201.865,210.234 201.499 C 210.352 201.381,209.988 200.824,209.424 200.261 C 208.861 199.697,208.394 199.003,208.387 198.718 C 208.372 198.100,206.400 196.575,206.400 197.181 M229.599 197.100 C 229.599 197.265,230.645 197.341,231.924 197.268 C 234.665 197.113,235.077 197.447,235.303 200.008 L 235.460 201.800 235.530 199.844 C 235.582 198.392,235.420 197.751,234.900 197.357 C 234.166 196.800,229.601 196.579,229.599 197.100 M216.996 203.624 C 216.997 207.439,217.112 209.444,217.269 208.400 C 217.625 206.040,217.628 200.615,217.274 198.624 C 217.115 197.730,216.995 199.895,216.996 203.624 M182.800 198.203 C 182.800 198.658,183.712 200.195,184.160 200.494 C 185.066 201.099,185.290 200.772,184.461 200.053 C 183.988 199.642,183.600 199.113,183.600 198.877 C 183.600 198.640,183.420 198.336,183.200 198.200 C 182.980 198.064,182.800 198.065,182.800 198.203 M200.198 202.100 C 200.039 204.016,200.092 205.987,200.326 206.800 C 200.655 207.947,200.734 207.352,200.764 203.500 C 200.806 198.001,200.584 197.451,200.198 202.100 M173.340 203.600 C 173.340 205.470,173.409 206.235,173.493 205.300 C 173.577 204.365,173.577 202.835,173.493 201.900 C 173.409 200.965,173.340 201.730,173.340 203.600 M235.681 208.471 L 235.600 215.142 236.654 215.971 C 237.383 216.545,238.215 216.778,239.354 216.730 L 241.000 216.660 239.343 216.509 C 236.466 216.247,236.232 215.675,235.981 208.260 L 235.761 201.800 235.681 208.471 M209.900 204.629 C 209.735 204.796,209.600 205.263,209.600 205.667 C 209.600 206.070,209.425 206.400,209.210 206.400 C 208.659 206.400,207.597 208.584,207.616 209.680 C 207.629 210.441,207.736 210.359,208.237 209.203 C 208.570 208.434,209.208 207.417,209.654 206.942 C 210.384 206.166,210.625 203.893,209.900 204.629 M184.600 207.283 C 183.734 207.780,182.833 208.807,182.813 209.321 C 182.806 209.497,183.214 209.194,183.720 208.648 C 186.002 206.186,189.549 207.835,188.973 211.089 C 188.319 214.779,187.087 216.058,183.300 216.976 C 182.035 217.283,181.422 217.548,181.938 217.567 C 183.667 217.628,187.168 216.367,187.918 215.413 C 191.116 211.347,188.537 205.026,184.600 207.283 M173.632 207.881 C 173.575 208.746,174.516 210.400,175.064 210.400 C 175.803 210.400,175.735 210.012,174.863 209.247 C 174.457 208.891,174.021 208.330,173.894 208.000 C 173.767 207.669,173.649 207.616,173.632 207.881 M166.832 210.538 C 166.787 211.573,168.031 213.556,168.897 213.831 C 169.295 213.957,169.927 214.542,170.301 215.130 C 171.057 216.318,171.600 216.791,172.200 216.782 C 172.420 216.778,172.285 216.592,171.900 216.368 C 171.515 216.144,170.925 215.429,170.590 214.780 C 170.254 214.131,169.742 213.600,169.452 213.600 C 168.743 213.600,167.798 212.466,167.284 211.000 C 167.017 210.239,166.852 210.070,166.832 210.538 M216.432 210.791 C 216.414 211.116,215.725 212.038,214.900 212.839 C 212.633 215.040,211.237 216.800,211.757 216.800 C 212.341 216.800,213.438 215.540,213.773 214.486 C 213.912 214.046,214.362 213.599,214.773 213.491 C 215.693 213.251,216.949 211.410,216.669 210.713 C 216.520 210.342,216.454 210.364,216.432 210.791 M203.107 211.090 C 203.826 211.179,204.906 211.177,205.507 211.086 C 206.108 210.995,205.520 210.922,204.200 210.924 C 202.880 210.926,202.388 211.001,203.107 211.090 M194.800 213.405 C 194.800 214.450,197.016 216.812,197.961 216.775 C 198.404 216.757,198.340 216.644,197.753 216.407 C 197.287 216.219,196.507 215.420,196.020 214.632 C 195.199 213.304,194.800 212.903,194.800 213.405 M243.526 215.700 C 242.935 216.305,242.682 216.800,242.964 216.800 C 243.586 216.800,244.938 215.373,244.741 214.923 C 244.663 214.745,244.116 215.095,243.526 215.700 M173.400 217.180 C 174.161 217.526,177.117 217.764,176.767 217.451 C 176.675 217.369,175.700 217.193,174.600 217.059 C 173.254 216.895,172.861 216.935,173.400 217.180 M199.400 217.200 C 199.840 217.389,200.740 217.538,201.400 217.532 C 202.570 217.521,202.575 217.512,201.600 217.200 C 200.133 216.730,198.306 216.730,199.400 217.200 M208.200 217.200 C 207.471 217.513,207.488 217.544,208.400 217.544 C 208.950 217.544,209.760 217.389,210.200 217.200 C 210.929 216.887,210.912 216.856,210.000 216.856 C 209.450 216.856,208.640 217.011,208.200 217.200 " stroke="none" fill="#9c9c9c" fill-rule="evenodd"></path><path id="path4" d="M156.835 178.683 C 154.545 179.134,154.610 178.600,154.481 197.912 C 154.347 217.769,154.329 217.625,156.909 217.575 C 158.172 217.550,158.178 217.541,157.200 217.157 C 154.779 216.207,154.819 216.505,154.809 199.087 C 154.799 181.869,154.879 181.153,156.947 179.798 C 160.704 177.336,163.593 182.946,163.614 192.745 C 163.625 197.760,163.769 199.646,164.200 200.400 C 164.957 201.725,164.957 206.049,164.200 207.862 C 163.870 208.651,163.600 210.412,163.600 211.774 C 163.600 214.628,162.657 215.912,159.788 216.962 L 158.200 217.544 159.587 217.572 C 163.407 217.649,165.194 215.890,165.205 212.040 C 165.212 209.873,165.552 208.400,166.047 208.400 C 166.241 208.400,166.400 209.220,166.400 210.222 C 166.400 214.214,169.333 217.639,172.692 217.568 L 174.200 217.537 172.558 216.954 C 171.545 216.595,170.742 215.992,170.464 215.380 C 170.215 214.835,169.589 214.196,169.072 213.960 C 167.224 213.118,166.749 211.585,166.505 205.680 C 166.367 202.346,166.081 199.887,165.775 199.400 C 165.436 198.863,165.216 196.234,165.105 191.400 C 164.944 184.429,164.297 180.800,163.215 180.800 C 163.051 180.800,162.431 180.350,161.838 179.800 C 161.244 179.250,160.453 178.798,160.079 178.795 C 159.706 178.792,159.040 178.722,158.600 178.641 C 158.160 178.559,157.366 178.578,156.835 178.683 M175.454 187.629 C 174.832 188.118,174.400 188.857,174.400 189.429 C 174.400 190.593,175.013 190.697,175.584 189.630 C 176.653 187.633,181.362 187.535,183.120 189.473 C 183.494 189.886,184.610 190.573,185.600 191.000 C 191.259 193.441,190.655 202.666,184.959 200.787 C 184.010 200.473,183.508 199.952,183.048 198.802 C 182.352 197.063,180.176 196.572,176.600 197.347 C 173.993 197.912,173.805 198.102,173.741 200.241 C 173.709 201.318,173.771 201.765,173.878 201.233 C 174.306 199.112,176.197 197.893,179.371 197.689 L 182.280 197.503 182.515 198.955 C 182.857 201.060,183.589 201.602,186.071 201.587 C 189.470 201.567,189.813 201.095,189.732 196.558 C 189.649 191.959,189.175 191.001,186.780 190.597 C 185.438 190.370,185.055 190.103,184.730 189.171 C 183.905 186.804,177.794 185.789,175.454 187.629 M201.105 187.426 C 200.503 187.753,199.746 188.531,199.423 189.156 C 198.936 190.097,198.495 190.337,196.857 190.555 C 194.756 190.833,194.400 191.221,194.400 193.233 C 194.400 194.217,194.240 194.400,193.382 194.400 C 190.765 194.400,190.400 195.570,190.400 203.953 C 190.400 212.326,190.405 212.343,192.983 213.194 C 194.123 213.571,194.421 213.905,194.636 215.049 C 194.981 216.889,195.998 217.467,199.483 217.801 C 201.230 217.969,202.558 218.308,202.851 218.662 C 204.208 220.296,206.060 220.499,207.437 219.164 C 208.410 218.221,209.212 217.857,210.666 217.698 C 214.435 217.285,217.622 213.558,217.553 209.645 L 217.506 207.000 217.145 209.184 C 216.737 211.642,215.878 213.202,214.773 213.491 C 214.362 213.599,213.909 214.058,213.764 214.512 C 213.047 216.772,210.312 217.721,204.684 217.662 C 198.530 217.598,196.412 216.770,195.066 213.900 C 194.679 213.075,194.205 212.400,194.012 212.400 C 193.819 212.400,193.108 211.934,192.431 211.364 L 191.200 210.329 191.200 204.120 L 191.200 197.912 193.000 196.137 C 193.990 195.161,194.806 194.056,194.813 193.681 C 194.840 192.214,196.339 191.097,198.900 190.635 C 199.725 190.486,200.861 189.902,201.425 189.338 C 202.779 187.984,207.458 188.057,208.677 189.451 C 209.074 189.907,210.072 190.404,210.894 190.557 C 211.847 190.734,212.644 191.208,213.094 191.866 C 214.116 193.358,215.365 194.655,215.979 194.860 C 216.272 194.957,216.742 196.109,217.023 197.419 L 217.533 199.800 217.566 197.492 C 217.602 195.026,216.313 192.244,214.883 191.703 C 214.507 191.561,213.962 191.210,213.671 190.922 C 213.381 190.635,212.898 190.400,212.598 190.400 C 212.299 190.400,211.948 190.068,211.819 189.661 C 211.123 187.468,203.832 185.947,201.105 187.426 M233.009 187.330 C 231.457 187.848,230.400 188.831,230.400 189.759 C 230.400 190.484,230.327 190.471,229.369 189.570 C 227.936 188.222,221.383 188.087,220.647 189.391 C 220.401 189.826,219.957 190.376,219.660 190.614 C 218.712 191.375,218.435 194.371,218.422 204.000 C 218.403 217.705,218.357 217.600,224.317 217.600 C 229.535 217.600,229.359 217.956,229.600 206.936 L 229.800 197.800 232.100 197.680 L 234.400 197.560 234.404 205.480 C 234.411 217.567,234.428 217.600,240.492 217.600 C 245.787 217.600,245.604 218.025,245.584 205.774 C 245.566 194.997,245.195 192.995,243.000 191.826 C 242.560 191.592,242.056 191.175,241.880 190.900 C 241.704 190.625,241.221 190.400,240.807 190.400 C 240.393 190.400,239.948 190.067,239.819 189.661 C 239.370 188.246,234.875 186.708,233.009 187.330 M235.717 189.300 C 236.309 189.575,236.795 189.935,236.797 190.100 C 236.799 190.265,237.444 190.400,238.231 190.400 C 239.339 190.400,239.924 190.693,240.826 191.700 C 241.466 192.415,242.577 193.590,243.295 194.312 L 244.600 195.623 244.720 205.458 C 244.864 217.250,245.028 216.800,240.592 216.800 C 235.683 216.800,235.745 216.922,235.522 206.836 C 235.308 197.216,235.303 197.200,232.325 197.200 C 228.666 197.200,228.800 196.849,228.800 206.432 C 228.800 214.822,228.798 214.838,227.818 215.818 C 226.477 217.159,222.278 217.249,220.654 215.971 L 219.600 215.142 219.600 204.157 C 219.600 189.723,219.253 190.371,226.925 190.452 C 231.735 190.502,232.088 190.453,232.648 189.653 C 233.330 188.680,234.173 188.583,235.717 189.300 M170.103 190.682 C 167.671 191.151,165.680 195.787,166.513 199.042 C 166.620 199.459,166.728 199.133,166.754 198.319 C 166.834 195.761,168.092 193.628,170.599 191.800 C 171.203 191.360,172.170 190.886,172.748 190.747 C 174.024 190.441,171.657 190.382,170.103 190.682 M204.000 197.204 C 200.718 197.509,200.794 197.367,200.847 203.124 C 200.916 210.541,200.928 210.573,203.581 210.724 C 206.508 210.890,207.600 210.577,207.600 209.573 C 207.600 208.550,208.691 206.400,209.210 206.400 C 209.425 206.400,209.600 206.051,209.600 205.624 C 209.600 205.197,209.780 204.736,210.000 204.600 C 210.729 204.149,210.456 201.828,209.613 201.301 C 209.180 201.030,208.527 200.222,208.162 199.504 C 207.042 197.302,206.453 196.977,204.000 197.204 M206.817 199.200 C 206.942 199.970,207.235 200.938,207.467 201.352 C 207.928 202.171,207.757 205.319,207.183 206.600 C 206.986 207.040,206.774 208.030,206.712 208.800 L 206.600 210.200 204.100 210.319 L 201.600 210.438 201.600 204.286 C 201.600 197.229,201.474 197.528,204.379 197.683 C 206.566 197.799,206.592 197.815,206.817 199.200 M173.756 207.334 C 174.300 209.566,175.837 210.576,178.773 210.632 C 180.876 210.672,180.981 210.650,179.297 210.521 C 177.336 210.371,177.155 210.267,176.617 208.980 C 176.300 208.221,175.821 207.600,175.552 207.600 C 175.283 207.600,174.707 207.285,174.272 206.900 C 173.501 206.218,173.487 206.230,173.756 207.334 M183.800 206.670 C 182.716 206.972,182.408 207.545,182.438 209.200 C 182.452 209.970,182.552 210.330,182.661 210.000 C 184.447 204.577,190.529 206.658,189.192 212.234 C 188.167 216.505,185.980 217.616,178.453 217.693 C 176.114 217.716,174.560 217.814,175.000 217.909 C 175.440 218.004,176.307 218.594,176.927 219.220 C 178.144 220.449,178.798 220.380,181.200 218.768 C 181.750 218.399,183.190 217.974,184.400 217.824 C 187.534 217.436,188.661 216.901,189.229 215.531 C 189.860 214.007,189.955 207.803,189.357 207.200 C 188.857 206.696,185.020 206.330,183.800 206.670 " stroke="none" fill="#acacac" fill-rule="evenodd"></path></g></svg>