<!-- Generator: Adobe Illustrator 24.0.3, SVG Export Plug-In  -->
<svg version="1.1" xmlns="http://www.w3.org/2000/svg" xmlns:xlink="http://www.w3.org/1999/xlink" x="0px" y="0px" viewBox="0 0 48 48" style="enable-background:new 0 0 48 48;" xml:space="preserve">
<style type="text/css">
	.st0{fill:none;}
	.st1{fill:url(#SVGID_1_);}
	.st2{fill:#FFFFFF;stroke:#3E6BFD;stroke-width:0.5019;stroke-linecap:round;stroke-miterlimit:10;}
	.st3{fill:#3E6BFD;}
	.st4{fill:#FFFFFF;}
	.st5{fill:#3E6BFD;stroke:#3E6BFD;stroke-width:0.5019;stroke-linecap:round;stroke-miterlimit:10;}
	.st6{fill:#8EA8FF;}
	.st7{fill:none;stroke:#3E6BFD;stroke-width:0.5019;stroke-linecap:round;stroke-miterlimit:10;}
	.st8{fill:#98E2B9;}
	.st9{fill:none;stroke:#FFFFFF;stroke-width:0.5019;stroke-linecap:round;stroke-linejoin:round;stroke-miterlimit:10;}
	.st10{fill:url(#SVGID_2_);}
</style>
<defs>
</defs>
<g>
	<linearGradient id="SVGID_1_" gradientUnits="userSpaceOnUse" x1="9.094947e-13" y1="24.5014" x2="48" y2="24.5014">
		<stop  offset="0" style="stop-color:#FFFFFF"/>
		<stop  offset="0.3078" style="stop-color:#EDF2FF"/>
		<stop  offset="0.6482" style="stop-color:#E2EAFF"/>
		<stop  offset="1" style="stop-color:#DEE7FF"/>
	</linearGradient>
	<path class="st1" d="M31.2,4.5C17,5.5-1.3,21.1,0.1,35.5s33.4,10.2,43.7-2.9C51.7,22.5,49.1,3.3,31.2,4.5z"/>
	<g>
		<path class="st2" d="M26.4,46.4H13.2c-1.4,0-2.5-1.1-2.5-2.5V17c0-1.4,1.1-2.5,2.5-2.5h13.2c1.4,0,2.5,1.1,2.5,2.5v26.9
			C28.9,45.3,27.7,46.4,26.4,46.4z"/>
		<polyline class="st2" points="28.9,42.1 25,42.1 23.5,42.1 10.9,42.1 		"/>
		<path class="st3" d="M10.7,42.1v1.8c0,1.4,1.1,2.5,2.5,2.5h13.2c1.4,0,2.5-1.1,2.5-2.5v-1.8H10.7z"/>
		<path class="st4" d="M21.1,44.6h-2.5c-0.3,0-0.5-0.2-0.5-0.5l0,0c0-0.3,0.2-0.5,0.5-0.5h2.5c0.3,0,0.5,0.2,0.5,0.5l0,0
			C21.6,44.4,21.4,44.6,21.1,44.6z"/>
	</g>
	<path class="st5" d="M38.5,16.5h4.8c0,0,0,1.1,0,1.9c0,1.1-0.4,2-1.7,2c-2.1,0-3.5,0-3.5,0L38.5,16.5z"/>
	<path class="st2" d="M39.9,4.8V2.9c0-0.6-0.5-1-1-1H26.2c-0.5,0-1,0.4-1,1v9.3v4.3c0,1.3,0,1.8,0,2c0,0.7,0.3,1.9,1.7,1.9
		c1.4,0,16.1,0,14.6,0c-1.5,0-1.7-1.3-1.7-1.9c0-0.3,0-4.3,0-8.8"/>
	<g>
		<circle class="st6" cx="32.6" cy="8.1" r="4"/>
		<path class="st4" d="M32.7,7.9c-0.4-0.2-0.8-0.3-0.8-0.6c0-0.3,0.3-0.5,0.7-0.5c0.4,0,0.6,0.1,0.8,0.3l0.1,0l0.2-0.3l-0.1-0.1
			c-0.2-0.2-0.5-0.4-0.9-0.4V5.7h-0.4v0.7c-0.5,0.1-0.9,0.4-0.9,0.9c0,0.5,0.5,0.8,1,0.9C33,8.4,33.4,8.6,33.4,9
			c0,0.3-0.3,0.5-0.8,0.5c-0.5,0-0.8-0.2-1-0.4l-0.1,0l-0.2,0.3l0.1,0c0.1,0.1,0.5,0.4,1,0.4v0.8h0.4V9.9c0.6-0.1,1-0.4,1-0.9
			C33.8,8.3,33.2,8.1,32.7,7.9z"/>
	</g>
	<g>
		<circle class="st3" cx="28.7" cy="14.4" r="0.9"/>
		<line class="st7" x1="31" y1="14.4" x2="37.1" y2="14.4"/>
		<circle class="st3" cx="28.7" cy="17.1" r="0.9"/>
		<line class="st7" x1="31" y1="17.1" x2="37.1" y2="17.1"/>
	</g>
	<circle class="st8" cx="19.8" cy="29.4" r="5.4"/>
	<line class="st7" x1="39.9" y1="4.8" x2="39.9" y2="10.4"/>
	<polyline class="st9" points="16.9,29.3 18.9,31.3 22.7,27.5 	"/>
</g>
</svg>
