<?xml version="1.0" encoding="utf-8"?>
<!-- Generator: Adobe Illustrator 24.0.3, SVG Export Plug-In . SVG Version: 6.00 Build 0)  -->
<svg version="1.1" id="Layer_1" xmlns="http://www.w3.org/2000/svg" xmlns:xlink="http://www.w3.org/1999/xlink" x="0px" y="0px"
	 viewBox="0 0 48 48" style="enable-background:new 0 0 48 48;" xml:space="preserve">
<style type="text/css">
	.st0{fill:#FFFFFF;}
	.st1{fill:#3564FD;}
	.st2{fill:#FFB3B2;}
	.st3{fill:none;stroke:#FFFFFF;stroke-width:0.96;stroke-linecap:round;stroke-linejoin:round;stroke-miterlimit:10;}
	.st4{fill:none;stroke:#3564FD;stroke-width:0.48;stroke-linecap:round;stroke-linejoin:round;stroke-miterlimit:10;}
	.st5{fill:#FFFFFF;stroke:#3564FD;stroke-width:0.48;stroke-linecap:round;stroke-linejoin:round;stroke-miterlimit:10;}
	.st6{fill:#3564FD;stroke:#3564FD;stroke-width:0.12;stroke-miterlimit:10;}
</style>
<g>
	<g>
		<circle class="st0" cx="24" cy="24" r="23.8"/>
		<path class="st1" d="M24,0.5C37,0.5,47.5,11,47.5,24S37,47.5,24,47.5S0.5,37,0.5,24S11,0.5,24,0.5 M24,0C10.7,0,0,10.7,0,24
			s10.7,24,24,24s24-10.7,24-24S37.3,0,24,0L24,0z"/>
	</g>
	<g>
		<g>
			<circle class="st2" cx="18" cy="27.7" r="5.4"/>
		</g>
		<polyline class="st3" points="15.8,28.1 17.2,29.5 20.3,26.4 		"/>
		<path class="st4" d="M22.3,14.5h-8.6c-1.6,0-2.9,1.2-2.9,2.7v21.1c0,1.5,1.3,2.7,2.9,2.7h8.6c1.6,0,2.9-1.2,2.9-2.7V17.2
			C25.3,15.7,24,14.5,22.3,14.5z"/>
		<path class="st1" d="M19.8,15.6h-3.6c-0.3,0-0.5-0.2-0.5-0.5v0c0-0.3,0.2-0.5,0.5-0.5h3.6c0.3,0,0.5,0.2,0.5,0.5v0
			C20.4,15.4,20.1,15.6,19.8,15.6z"/>
		<line class="st4" x1="10.8" y1="38.3" x2="25.3" y2="38.3"/>
	</g>
	<g>
		<path id="SVGID_19_" class="st5" d="M35.1,7.2h-10c-1,0-1.9,0.9-1.9,1.9v13.8c0,1,0.9,1.9,1.9,1.9h10.4c1,0,1.9-0.9,1.9-1.9V9.5
			c0-0.2-0.1-0.5-0.3-0.6l-1.4-1.4C35.6,7.3,35.4,7.2,35.1,7.2z"/>
		<path class="st5" d="M35.1,7.2v1.1c0,0.6,0.5,1.1,1.1,1.1h1.2"/>
		<g>
			<circle class="st5" cx="30.4" cy="13.6" r="3.9"/>
			<g>
				<path class="st6" d="M31.8,14.9c-0.1,0.1-0.1,0.2-0.3,0.3c-0.1,0.1-0.2,0.2-0.4,0.2c-0.2,0.1-0.3,0.1-0.5,0.1v0.6h-0.4v-0.6
					c-0.3,0-0.5-0.1-0.7-0.2c-0.2-0.1-0.4-0.2-0.6-0.4l0.3-0.3c0.2,0.2,0.3,0.3,0.5,0.4c0.2,0.1,0.4,0.2,0.6,0.2v-1.4
					c-0.4-0.1-0.7-0.2-0.9-0.4c-0.2-0.2-0.3-0.4-0.3-0.7c0-0.2,0-0.3,0.1-0.4c0.1-0.1,0.1-0.2,0.3-0.3c0.1-0.1,0.2-0.2,0.4-0.2
					c0.1-0.1,0.3-0.1,0.5-0.1v-0.3h0.4v0.3c0.2,0,0.4,0.1,0.6,0.1c0.2,0.1,0.3,0.2,0.5,0.3l-0.2,0.3c-0.1-0.1-0.3-0.2-0.4-0.3
					c-0.1-0.1-0.3-0.1-0.4-0.1v1.4c0.4,0.1,0.8,0.2,1,0.4c0.2,0.2,0.3,0.4,0.3,0.7C31.9,14.6,31.9,14.8,31.8,14.9z M30.3,11.9
					c-0.1,0-0.2,0-0.3,0.1c-0.1,0-0.2,0.1-0.2,0.1c-0.1,0.1-0.1,0.1-0.2,0.2c0,0.1-0.1,0.2-0.1,0.2c0,0.1,0,0.2,0,0.2
					c0,0.1,0.1,0.1,0.1,0.2c0.1,0.1,0.1,0.1,0.2,0.2c0.1,0,0.2,0.1,0.4,0.1V11.9z M31.4,14.3c0-0.1-0.1-0.1-0.1-0.2
					C31.2,14,31.1,14,31,13.9c-0.1,0-0.2-0.1-0.4-0.1v1.4c0.2,0,0.4-0.1,0.6-0.2c0.1-0.1,0.2-0.3,0.2-0.5
					C31.4,14.4,31.4,14.3,31.4,14.3z"/>
			</g>
		</g>
		<line class="st5" x1="25.5" y1="19.8" x2="35.4" y2="19.8"/>
		<line class="st5" x1="25.5" y1="21.1" x2="29.7" y2="21.1"/>
		<path class="st5" d="M34.8,21.4h-3c-0.4,0-0.7,0.3-0.7,0.7v0.3c0,0.4,0.3,0.7,0.7,0.7h3c0.4,0,0.7-0.3,0.7-0.7v-0.3
			C35.5,21.7,35.2,21.4,34.8,21.4z"/>
	</g>
</g>
</svg>
