<?xml version="1.0" encoding="utf-8"?>
<!-- Generator: Adobe Illustrator 24.0.3, SVG Export Plug-In . SVG Version: 6.00 Build 0)  -->
<svg version="1.1" id="Layer_1" xmlns="http://www.w3.org/2000/svg" xmlns:xlink="http://www.w3.org/1999/xlink" x="0px" y="0px"
	 viewBox="0 0 48 48" style="enable-background:new 0 0 48 48;" xml:space="preserve">
<style type="text/css">
	.st0{fill:none;stroke:#3564FD;stroke-width:0.7226;stroke-linecap:round;stroke-linejoin:round;}
	.st1{fill:none;stroke:#3564FD;stroke-width:0.7226;stroke-linecap:round;stroke-linejoin:round;stroke-dasharray:6.9917,7.7685;}
	.st2{fill:#FFB3B2;}
	.st3{fill:#3564FD;}
	.st4{fill:#FFFFFF;stroke:#3564FD;stroke-width:0.7226;stroke-linecap:round;stroke-linejoin:round;stroke-miterlimit:10;}
	.st5{fill:none;stroke:#3564FD;stroke-width:0.7226;stroke-linecap:round;stroke-linejoin:round;stroke-miterlimit:10;}
</style>
<g>
	<g>
		<g>
			<g>
				<line class="st0" x1="2.9" y1="41.6" x2="6.1" y2="41.6"/>
				<line class="st1" x1="13.9" y1="41.6" x2="39.5" y2="41.6"/>
				<line class="st0" x1="43.4" y1="41.6" x2="46.7" y2="41.6"/>
			</g>
		</g>
	</g>
	<g>
		<g>
			<circle class="st2" cx="36.1" cy="34" r="3.4"/>
			<circle class="st2" cx="10.2" cy="34" r="3.4"/>
			<circle class="st3" cx="10.2" cy="34" r="1.6"/>
			<circle class="st3" cx="36.1" cy="34" r="1.6"/>
		</g>
		<g>
			<path class="st4" d="M47,29v-5.3c0-0.5-0.2-1-0.6-1.4l-8.2-8.2c-0.8-0.8-2-1.3-3.2-1.3h-3.5c-1,0-1.9,0.8-1.9,1.9v11
				c0,0.9-0.7,1.6-1.6,1.6H3.3c-0.3,0-0.5,0.2-0.5,0.5v5.7c0,0.3,0.2,0.5,0.5,0.5h2c0,0,0.1-4.7,4.8-4.7s5,4.7,5,4.7h15.2
				c0,0,0,0,0,0c0,0,0,0,0,0h0.9c0,0,0.3-4.8,4.8-4.8s4.9,4.8,4.9,4.8h4.6c0.8,0,1.4-0.6,1.4-1.4C47,31.1,47,29.1,47,29z"/>
			<path class="st2" d="M46.7,28.9h-2c-0.2,0-0.4-0.2-0.4-0.4v-2c0-0.2,0.2-0.4,0.4-0.4h2V28.9z"/>
			<path class="st3" d="M3.6,27.4h23.7c1.4,0,2.6-1.2,2.6-2.6V8.9c0-1.4-1.2-2.6-2.6-2.6H3.6C2.2,6.4,1,7.5,1,8.9v15.9
				C1,26.3,2.2,27.4,3.6,27.4z"/>
			<path class="st2" d="M33.6,16.1h2c0.3,0,0.5,0.1,0.7,0.3l3.5,3.5c0.6,0.6,0.2,1.6-0.7,1.6h-5.6c-0.5,0-1-0.4-1-1v-3.5
				C32.7,16.5,33.1,16.1,33.6,16.1z"/>
		</g>
		<path class="st5" d="M31.2,33.9c0,0,0.2-4.8,4.8-4.8s4.9,4.8,4.9,4.8"/>
		<path class="st5" d="M5.3,33.9c0,0,0.2-4.8,4.8-4.8s4.9,4.8,4.9,4.8"/>
	</g>
</g>
</svg>
