<!-- Generator: Adobe Illustrator 24.0.3, SVG Export Plug-In  -->
<svg version="1.1" xmlns="http://www.w3.org/2000/svg" xmlns:xlink="http://www.w3.org/1999/xlink" x="0px" y="0px" viewBox="0 0 48 48" style="enable-background:new 0 0 48 48;" xml:space="preserve">
<style type="text/css">
	.st0{fill:url(#SVGID_1_);}
	.st1{fill:#FFFFFF;stroke:#3E6BFD;stroke-width:0.485;stroke-linecap:round;stroke-miterlimit:10;}
	.st2{fill:#3E6BFD;}
	.st3{fill:#FE6767;}
	.st4{fill:#406DFB;}
	.st5{fill:#8EA8FF;}
	.st6{fill:none;stroke:#FFFFFF;stroke-width:0.485;stroke-linecap:round;stroke-linejoin:round;stroke-miterlimit:10;}
	.st7{fill:#FFFFFF;}
	.st8{fill:none;}
	.st9{fill:url(#SVGID_2_);}
</style>
<defs>
</defs>
<g>
	<linearGradient id="SVGID_1_" gradientUnits="userSpaceOnUse" x1="0.8095" y1="25.1197" x2="47.1905" y2="25.1197">
		<stop  offset="0" style="stop-color:#FFFFFF"/>
		<stop  offset="0.3078" style="stop-color:#EDF2FF"/>
		<stop  offset="0.6482" style="stop-color:#E2EAFF"/>
		<stop  offset="1" style="stop-color:#DEE7FF"/>
	</linearGradient>
	<path class="st0" d="M30.9,5.8c-13.7,1-31.4,16-30.1,29.9s32.3,9.9,42.2-2.8C50.7,23.2,48.3,4.6,30.9,5.8z"/>
	<g>
		<g>
			<path class="st1" d="M34.1,47.5H15.7c-1.3,0-2.3-1-2.3-2.3V9.4c0-1.3,1-2.3,2.3-2.3h18.4c1.3,0,2.3,1,2.3,2.3v35.8
				C36.4,46.5,35.4,47.5,34.1,47.5z"/>
			<rect x="21.6" y="7.1" class="st2" width="6.7" height="1.3"/>
			<polyline class="st1" points="13.6,42 29.6,42 31.5,42 36.4,42 			"/>
		</g>
		<g>
			<path class="st3" d="M22.7,26.4c0.6,0.1,0.9-0.2,1.2-0.5c0.3-0.4,0.5-0.9,0.8-1.4c0.3-0.5,0.5-1,0.8-1.5c0.4-0.6,0.9-1,1.6-0.9
				c0.5,0,0.9,0.2,1.2,0.6c0,0,0.1,0.1,0.1,0.2c0,0.1-0.1,0.1-0.2,0c-0.4-0.1-0.7,0.1-0.9,0.3c-0.4,0.4-0.7,1-1,1.5
				c-0.3,0.5-0.5,1.1-0.9,1.6c-0.4,0.5-0.8,0.9-1.5,0.9c-0.5,0-0.9-0.2-1.2-0.6C22.6,26.5,22.6,26.5,22.7,26.4
				C22.6,26.4,22.7,26.4,22.7,26.4z"/>
			<path class="st4" d="M23.1,27.7c-1.4,0-2.7-1.1-2.9-2.6c0-0.2,0-0.4,0-0.6c0-0.5,0.4-0.9,0.9-0.9c0.5,0,0.8,0.4,0.8,0.9
				c0,0.6,0,1.3,0.3,1.9c0.2,0.6,0.7,1,1.3,1.1c0.1,0,0.2,0,0.2,0.1c0,0.1-0.1,0.1-0.2,0.1C23.3,27.7,23.2,27.7,23.1,27.7z"/>
			<path class="st4" d="M27.9,21.6c1.4,0,2.6,1.1,2.9,2.5c0,0.2,0.1,0.4,0.1,0.7c0,0.5-0.4,0.9-0.9,0.9c-0.5,0-0.8-0.4-0.9-0.9
				c0-0.6,0-1.3-0.3-1.9c-0.2-0.6-0.7-1-1.3-1.1c-0.1,0-0.2,0-0.2-0.1c0-0.1,0.1-0.1,0.2-0.1C27.7,21.6,27.8,21.6,27.9,21.6z"/>
		</g>
		<path class="st1" d="M30.1,35.8h-9.6c-0.8,0-1.4-0.6-1.4-1.4v0c0-0.8,0.6-1.4,1.4-1.4h9.6c0.8,0,1.4,0.6,1.4,1.4v0
			C31.5,35.2,30.9,35.8,30.1,35.8z"/>
		<path class="st2" d="M13.4,42v2.3c0,1.7,0.6,3.1,3.1,3.1h16.7c2.6,0,3.1-1.4,3.1-3.1V42H13.4z"/>
	</g>
	<g>
		<circle class="st5" cx="24.9" cy="7.1" r="6.6"/>
		<g>
			<polyline class="st6" points="28.3,7.9 24.9,10.9 21.6,7.9 			"/>
			<line class="st6" x1="24.9" y1="10.5" x2="24.9" y2="3.3"/>
		</g>
	</g>
	<g>
		<path class="st7" d="M26.3,45.7H23c-0.4,0-0.7-0.3-0.7-0.7v0c0-0.4,0.3-0.7,0.7-0.7h3.3c0.4,0,0.7,0.3,0.7,0.7v0
			C27,45.4,26.7,45.7,26.3,45.7z"/>
	</g>
</g>
<rect class="st8" width="48" height="48"/>
</svg>
