<!-- Generator: Adobe Illustrator 24.0.3, SVG Export Plug-In  -->
<svg version="1.1" xmlns="http://www.w3.org/2000/svg" xmlns:xlink="http://www.w3.org/1999/xlink" x="0px" y="0px" viewBox="0 0 48 48" style="enable-background:new 0 0 48 48;" xml:space="preserve">
<style type="text/css">
	.st0{fill:none;}
	.st1{fill:url(#SVGID_1_);}
	.st2{fill:#FFFFFF;stroke:#3E6BFD;stroke-width:0.5019;stroke-linecap:round;stroke-miterlimit:10;}
	.st3{fill:#3E6BFD;}
	.st4{fill:#FFFFFF;}
	.st5{fill:#98E2B9;}
	.st6{fill:none;stroke:#FFFFFF;stroke-width:0.5019;stroke-linecap:round;stroke-linejoin:round;stroke-miterlimit:10;}
	.st7{fill:#FFFFFF;stroke:#FF8382;stroke-width:0.5019;stroke-linecap:round;stroke-miterlimit:10;}
	.st8{fill:#FFB3B2;stroke:#FFB3B2;stroke-width:0.5019;stroke-miterlimit:10;}
	.st9{fill:#FE6767;}
	.st10{fill:#406DFB;}
	.st11{fill:#FF8382;stroke:#FF8382;stroke-width:0.5019;stroke-miterlimit:10;}
	.st12{fill:none;stroke:#FF8382;stroke-width:0.5019;stroke-linecap:round;stroke-miterlimit:10;}
	.st13{fill:#FFDE73;}
	.st14{fill:#FFB450;}
	.st15{fill:url(#SVGID_2_);}
</style>
<defs>
</defs>
<g>
	<linearGradient id="SVGID_1_" gradientUnits="userSpaceOnUse" x1="9.094947e-13" y1="23.2402" x2="48" y2="23.2402">
		<stop  offset="0" style="stop-color:#FFFFFF"/>
		<stop  offset="0.3078" style="stop-color:#EDF2FF"/>
		<stop  offset="0.6482" style="stop-color:#E2EAFF"/>
		<stop  offset="1" style="stop-color:#DEE7FF"/>
	</linearGradient>
	<path class="st1" d="M31.2,3.3C17,4.3-1.3,19.9,0.1,34.2s33.4,10.2,43.7-2.9C51.7,21.3,49.1,2,31.2,3.3z"/>
	<g>
		<g>
			<path class="st2" d="M25.3,45.1H13.9c-1.4,0-2.5-1.1-2.5-2.5V18.8c0-1.4,1.1-2.5,2.5-2.5h11.4c1.4,0,2.5,1.1,2.5,2.5v23.8
				C27.8,44,26.7,45.1,25.3,45.1z"/>
			<polyline class="st2" points="11.5,41.2 22.1,41.2 24.3,41.2 27.8,41.2 			"/>
		</g>
		<path class="st3" d="M11.4,41.2v1.7c0,1.3,1.4,2.3,2.2,2.3h11.9c0.9,0,2.2-1,2.2-2.3v-1.7H11.4z"/>
		<path class="st4" d="M20.7,43.5h-2.3c-0.3,0-0.5-0.2-0.5-0.5l0,0c0-0.3,0.2-0.5,0.5-0.5h2.3c0.3,0,0.5,0.2,0.5,0.5l0,0
			C21.2,43.3,21,43.5,20.7,43.5z"/>
	</g>
	<circle class="st5" cx="19.6" cy="29.6" r="5.4"/>
	<polyline class="st6" points="16.6,29.5 18.7,31.5 22.5,27.7 	"/>
	<g>
		<path class="st7" d="M38.8,26.1l-12.8,0c-0.5,0-1-0.4-1-1l0-21.4c0-0.5,0.4-1,1-1l12.8,0c0.5,0,1,0.4,1,1l0,21.4
			C39.8,25.7,39.3,26.1,38.8,26.1z"/>
		<path class="st8" d="M34.5,12.3c0,0,1.3,0.6,2.8,1.7c1.7,1.2,2.5,2.1,2.5,2.1l0-5.3L34.5,12.3"/>
		<g>
			<path class="st9" d="M27.5,24.2c0.2,0,0.3-0.1,0.4-0.2c0.1-0.2,0.2-0.3,0.3-0.5c0.1-0.2,0.2-0.4,0.3-0.5c0.2-0.2,0.3-0.4,0.6-0.3
				c0.2,0,0.3,0.1,0.4,0.2c0,0,0,0,0,0.1c0,0,0,0-0.1,0c-0.1,0-0.3,0-0.3,0.1c-0.2,0.2-0.3,0.4-0.4,0.6c-0.1,0.2-0.2,0.4-0.3,0.6
				c-0.1,0.2-0.3,0.3-0.6,0.3C27.8,24.5,27.6,24.4,27.5,24.2C27.5,24.2,27.5,24.2,27.5,24.2C27.5,24.2,27.5,24.2,27.5,24.2z"/>
			<path class="st10" d="M27.7,24.7c-0.5,0-1-0.4-1.1-1c0-0.1,0-0.1,0-0.2c0-0.2,0.2-0.3,0.3-0.3c0.2,0,0.3,0.1,0.3,0.3
				c0,0.2,0,0.5,0.1,0.7c0.1,0.2,0.3,0.4,0.5,0.4c0,0,0.1,0,0.1,0c0,0,0,0-0.1,0C27.8,24.7,27.7,24.7,27.7,24.7z"/>
			<path class="st10" d="M29.5,22.4c0.5,0,1,0.4,1.1,1c0,0.1,0,0.2,0,0.3c0,0.2-0.2,0.3-0.3,0.3c-0.2,0-0.3-0.1-0.3-0.3
				c0-0.2,0-0.5-0.1-0.7c-0.1-0.2-0.3-0.4-0.5-0.4c0,0-0.1,0-0.1,0c0,0,0,0,0.1,0C29.4,22.4,29.4,22.4,29.5,22.4z"/>
		</g>
		<path class="st11" d="M25,17.6l0-14c0-0.5,0.4-0.9,0.9-0.9l13,0c0.5,0,0.9,0.4,0.9,0.9l0,8.9c0,0-2.6-0.9-6.8,0
			C28,13.6,25,17.6,25,17.6z"/>
		<path class="st12" d="M38.8,26.1l-12.8,0c-0.5,0-1-0.4-1-1l0-21.4c0-0.5,0.4-1,1-1l12.8,0c0.5,0,1,0.4,1,1l0,21.4
			C39.8,25.7,39.3,26.1,38.8,26.1z"/>
		<g>
			<circle class="st13" cx="37" cy="23.5" r="1.2"/>
			<circle class="st9" cx="35.3" cy="23.5" r="1.2"/>
			<path class="st14" d="M35.8,23.5c0,0.3,0.1,0.6,0.4,0.9c0.2-0.2,0.4-0.5,0.4-0.9c0-0.3-0.1-0.6-0.4-0.9
				C35.9,22.9,35.8,23.2,35.8,23.5z"/>
		</g>
	</g>
</g>
</svg>
