<!-- Generator: Adobe Illustrator 24.0.3, SVG Export Plug-In  -->
<svg version="1.1" xmlns="http://www.w3.org/2000/svg" xmlns:xlink="http://www.w3.org/1999/xlink" x="0px" y="0px"  viewBox="0 0 48 48" style="enable-background:new 0 0 48 48;" xml:space="preserve">
<style type="text/css">
	.st0{fill:none;}
	.st1{fill:url(#SVGID_1_);}
	.st2{fill:#FFFFFF;stroke:#3E6BFD;stroke-width:0.5019;stroke-linecap:round;stroke-miterlimit:10;}
	.st3{fill:#8EA8FF;}
	.st4{fill:none;stroke:#FFFFFF;stroke-width:0.5019;stroke-linecap:round;stroke-miterlimit:10;}
	.st5{fill:url(#SVGID_2_);}
</style>
<defs>
</defs>
<g>
	<linearGradient id="SVGID_1_" gradientUnits="userSpaceOnUse" x1="0" y1="24" x2="48" y2="24">
		<stop  offset="0" style="stop-color:#FFFFFF"/>
		<stop  offset="0.3078" style="stop-color:#EDF2FF"/>
		<stop  offset="0.6482" style="stop-color:#E2EAFF"/>
		<stop  offset="1" style="stop-color:#DEE7FF"/>
	</linearGradient>
	<path class="st1" d="M31.2,4C17,5-1.3,20.6,0.1,35s33.4,10.2,43.7-2.9C51.7,22,49.1,2.8,31.2,4z"/>
	<path class="st2" d="M6.2,31.2V33c0,1.6,1.3,2.9,2.9,2.9h29.9c1.6,0,2.9-1.3,2.9-2.9V16.9c0-1.6-1.3-2.9-2.9-2.9H9.1
		c-1.6,0-2.9,1.3-2.9,2.9v11.8V31.2z"/>
	<g>
		<path class="st3" d="M35.2,24H24.1c-0.7,0-1.4-0.6-1.4-1.4v0c0-0.7,0.6-1.4,1.4-1.4h11.1c0.7,0,1.4,0.6,1.4,1.4v0
			C36.6,23.4,36,24,35.2,24z"/>
		<line class="st2" x1="36.2" y1="26" x2="23.2" y2="26"/>
		<line class="st2" x1="36.2" y1="28.3" x2="23.2" y2="28.3"/>
	</g>
	<circle class="st3" cx="15" cy="25" r="5.2"/>
	<path class="st4" d="M12,27.9c0.8-0.8,1.8-1.2,2.9-1.2c1.2,0,2.3,0.5,3.1,1.4"/>
	<circle class="st4" cx="14.9" cy="24.1" r="1.7"/>
</g>
</svg>
