<svg width="70" height="70" viewBox="0 0 70 70" fill="none" xmlns="http://www.w3.org/2000/svg">
<circle cx="35" cy="35" r="35" fill="#E2EAFF"/>
<path fill-rule="evenodd" clip-rule="evenodd" d="M35 15C46.5983 15 56 24.4017 56 36C56 47.597 46.5976 57 35 57C23.4037 57 14 47.5963 14 36C14 24.4024 23.403 15 35 15ZM35 17C24.5076 17 16 25.507 16 36C16 46.4917 24.5083 55 35 55C45.493 55 54 46.4924 54 36C54 25.5063 45.4937 17 35 17ZM33.8667 24C33.8667 23.4477 34.3144 23 34.8667 23C35.419 23 35.8667 23.4477 35.8667 24V25.9802C37.3634 26.1226 38.6769 26.5834 39.8013 27.2712C40.6374 27.7826 41.204 28.3059 41.5117 28.6874C41.8584 29.1172 41.7911 29.7468 41.3612 30.0936C40.9313 30.4403 40.3018 30.3729 39.955 29.9431C39.7824 29.729 39.3819 29.3591 38.7577 28.9774C37.6924 28.3257 36.4011 27.9333 34.8667 27.9333C32.117 27.9333 30.0646 29.0913 30.0646 31.04C30.0646 32.9458 31.2786 33.7673 35.1875 35.0245L35.3275 35.0695C39.9914 36.569 41.6982 37.6975 41.6982 40.7171C41.6982 43.3375 39.3053 45.3938 35.8667 45.7289V47.6333C35.8667 48.1856 35.419 48.6333 34.8667 48.6333C34.3144 48.6333 33.8667 48.1856 33.8667 47.6333V45.7336C32.0523 45.5724 30.6108 44.9672 29.5228 44.0407C28.7251 43.3614 28.2702 42.6629 28.0683 42.1451C27.8677 41.6305 28.1223 41.0508 28.6368 40.8502C29.1514 40.6496 29.7312 40.9041 29.9317 41.4187C30.0217 41.6496 30.2983 42.0742 30.8195 42.518C31.7368 43.2991 33.0473 43.7768 34.8667 43.7768C37.8271 43.7768 39.6982 42.3455 39.6982 40.7171C39.6982 38.9668 38.5464 38.2052 34.7154 36.9735L34.5752 36.9284C29.8508 35.409 28.0646 34.2003 28.0646 31.04C28.0646 27.9867 30.619 26.2662 33.8667 25.9771V24Z" fill="#3564FD"/>
</svg>
