<?xml version="1.0" encoding="utf-8"?>
<!-- Generator: Adobe Illustrator 24.0.3, SVG Export Plug-In . SVG Version: 6.00 Build 0)  -->
<svg version="1.1" id="Layer_1" xmlns="http://www.w3.org/2000/svg" xmlns:xlink="http://www.w3.org/1999/xlink" x="0px" y="0px"
	 viewBox="0 0 48 48" style="enable-background:new 0 0 48 48;" xml:space="preserve">
<style type="text/css">
	.st0{fill:#FFFFFF;stroke:#3564FD;stroke-width:0.6164;stroke-linecap:round;stroke-linejoin:round;stroke-miterlimit:10;}
	.st1{fill:#3564FD;}
	.st2{fill:none;stroke:#3564FD;stroke-width:0.6164;stroke-linecap:round;stroke-linejoin:round;stroke-miterlimit:10;}
	.st3{fill:#FF6766;}
	.st4{opacity:0.9;fill:#3E6BFD;}
	.st5{fill:#3E6BFD;}
	.st6{fill:#FFB3B2;}
	.st7{fill:none;stroke:#FFFFFF;stroke-width:1.2328;stroke-linecap:round;stroke-linejoin:round;stroke-miterlimit:10;}
</style>
<g>
	<path class="st0" d="M26.5,1H11.6C8.8,1,6.5,3.1,6.5,5.6v36.7c0,2.6,2.3,4.6,5.1,4.6h14.9c2.8,0,5.1-2.1,5.1-4.6V5.6
		C31.6,3.1,29.3,1,26.5,1z"/>
	<path class="st1" d="M24.8,34.4H13.4c-1.2,0-2.1-1-2.1-2.1v0c0-1.2,1-2.1,2.1-2.1h11.4c1.2,0,2.1,1,2.1,2.1v0
		C27,33.4,26,34.4,24.8,34.4z"/>
	<path class="st1" d="M22.2,2.9h-6.3c-0.5,0-1-0.4-1-1v0c0-0.5,0.4-1,1-1h6.3c0.5,0,1,0.4,1,1v0C23.1,2.5,22.7,2.9,22.2,2.9z"/>
	<line class="st2" x1="6.5" y1="42.4" x2="31.6" y2="42.4"/>
	<g>
		<path class="st3" d="M20.9,15.5c0.9,0,1.4,0.5,1.7,0.8c0.1,0.1,0,0.2-0.1,0.2c-0.1,0-0.2,0-0.3,0c-2,0-2.5,5.2-5.1,5.2
			c-0.9,0-1.4-0.5-1.7-0.8c-0.1-0.1,0-0.2,0.1-0.2c0.1,0,0.2,0.1,0.3,0.1C17.8,20.7,18.2,15.5,20.9,15.5z"/>
		<path class="st4" d="M14.4,18.4c0,1.3,0.1,3.4,2.2,3.6c0.1,0,0.1,0.1,0,0.2c-0.2,0-0.4,0.1-0.7,0.1c-1.8,0-3.7-1.4-3.7-3.8
			c0-0.5,0.4-1.1,1.1-1.1C14.1,17.3,14.4,17.8,14.4,18.4z"/>
		<path class="st5" d="M23.6,18.7c0-1.3-0.1-3.4-2.2-3.6c-0.1,0-0.1-0.1,0-0.2c0.2,0,0.4-0.1,0.7-0.1c1.8,0,3.7,1.4,3.7,3.8
			c0,0.5-0.4,1.1-1.1,1.1C24,19.8,23.6,19.2,23.6,18.7z"/>
	</g>
	<path class="st6" d="M34.6,17.4c-3.8,0-6.9-3.1-6.9-6.9s3.1-6.9,6.9-6.9s6.9,3.1,6.9,6.9S38.4,17.4,34.6,17.4z"/>
	<g>
		<line class="st7" x1="34.8" y1="6.7" x2="34.8" y2="14.2"/>
		<polyline class="st7" points="32.2,12 34.8,14.2 37,12 		"/>
	</g>
</g>
</svg>
