<!-- Generator: Adobe Illustrator 24.0.3, SVG Export Plug-In  -->
<svg version="1.1" xmlns="http://www.w3.org/2000/svg" xmlns:xlink="http://www.w3.org/1999/xlink" x="0px" y="0px" viewBox="0 0 48 48" style="enable-background:new 0 0 48 48;" xml:space="preserve">
<style type="text/css">
	.st0{fill:none;}
	.st1{fill:url(#SVGID_1_);}
	.st2{fill:#FFFFFF;stroke:#3E6BFD;stroke-width:0.5019;stroke-linecap:round;stroke-linejoin:round;stroke-miterlimit:10;}
	.st3{fill:#3E6BFD;}
	.st4{fill:none;stroke:#3E6BFD;stroke-width:0.5019;stroke-linecap:round;stroke-miterlimit:10;}
	.st5{fill:#FFFFFF;stroke:#3E6BFD;stroke-width:0.5019;stroke-linecap:round;stroke-miterlimit:10;}
	.st6{fill:#FFFFFF;stroke:#FF8382;stroke-width:0.5019;stroke-linecap:round;stroke-miterlimit:10;}
	.st7{fill:#FFB3B2;stroke:#FFB3B2;stroke-width:0.5019;stroke-miterlimit:10;}
	.st8{fill:#FE6767;}
	.st9{fill:#406DFB;}
	.st10{fill:#FF8382;stroke:#FF8382;stroke-width:0.5019;stroke-miterlimit:10;}
	.st11{fill:none;stroke:#FF8382;stroke-width:0.5019;stroke-linecap:round;stroke-miterlimit:10;}
	.st12{fill:#FFDE73;}
	.st13{fill:#FFB450;}
	.st14{fill:url(#SVGID_2_);}
</style>
<defs>
</defs>
<g>
	<linearGradient id="SVGID_1_" gradientUnits="userSpaceOnUse" x1="0" y1="24" x2="48" y2="24">
		<stop  offset="0" style="stop-color:#FFFFFF"/>
		<stop  offset="0.3078" style="stop-color:#EDF2FF"/>
		<stop  offset="0.6482" style="stop-color:#E2EAFF"/>
		<stop  offset="1" style="stop-color:#DEE7FF"/>
	</linearGradient>
	<path class="st1" d="M31.2,4C17,5-1.3,20.6,0.1,35s33.4,10.2,43.7-2.9C51.7,22,49.1,2.8,31.2,4z"/>
	<polyline class="st2" points="43.9,36.8 46.3,36.8 46.3,28 38.6,17.8 35.4,17.8 35.4,32.3 7.9,32.3 7.9,36.8 10,36.8 	"/>
	<circle class="st3" cx="14.6" cy="36.8" r="3.4"/>
	<circle class="st3" cx="39.5" cy="36.8" r="3.4"/>
	<line class="st4" x1="18.9" y1="36.8" x2="35.2" y2="36.8"/>
	<line class="st5" x1="35.4" y1="25.5" x2="46.2" y2="28"/>
	<path class="st3" d="M45,33.8H46c0.1,0,0.3-0.1,0.3-0.3v-2.8c0-0.1-0.1-0.3-0.3-0.3H45c-0.1,0-0.3,0.1-0.3,0.3v2.8
		C44.7,33.7,44.8,33.8,45,33.8z"/>
	<g>
		<path class="st6" d="M33.4,15.2v14.4c0,0.5-0.4,1-1,1H8.6c-0.5,0-1-0.4-1-1V15.2c0-0.5,0.4-1,1-1h23.8
			C32.9,14.2,33.4,14.7,33.4,15.2z"/>
		<path class="st7" d="M18.1,20.1c0,0,0.7-1.4,1.9-3.1c1.3-1.9,2.4-2.8,2.4-2.8h-5.8L18.1,20.1"/>
		<g>
			<path class="st8" d="M31.2,27.7c0-0.2-0.1-0.4-0.2-0.5c-0.2-0.1-0.4-0.2-0.6-0.3c-0.2-0.1-0.4-0.2-0.6-0.3
				c-0.2-0.2-0.4-0.4-0.4-0.7c0-0.2,0.1-0.4,0.2-0.5c0,0,0,0,0.1,0c0,0,0,0,0,0.1c0,0.2,0,0.3,0.1,0.4c0.2,0.2,0.4,0.3,0.6,0.4
				c0.2,0.1,0.4,0.2,0.6,0.4c0.2,0.2,0.4,0.3,0.4,0.6C31.6,27.4,31.5,27.6,31.2,27.7C31.3,27.8,31.3,27.8,31.2,27.7
				C31.2,27.8,31.2,27.7,31.2,27.7z"/>
			<path class="st9" d="M31.8,27.6c0,0.6-0.5,1.1-1.1,1.2c-0.1,0-0.2,0-0.2,0c-0.2,0-0.4-0.2-0.4-0.4c0-0.2,0.2-0.3,0.4-0.3
				c0.3,0,0.5,0,0.8-0.1c0.3-0.1,0.4-0.3,0.5-0.6c0,0,0-0.1,0-0.1c0,0,0,0,0,0.1C31.8,27.5,31.8,27.5,31.8,27.6z"/>
			<path class="st9" d="M29.3,25.6c0-0.6,0.4-1.1,1.1-1.2c0.1,0,0.2,0,0.3,0c0.2,0,0.4,0.2,0.4,0.4c0,0.2-0.2,0.3-0.4,0.4
				c-0.3,0-0.5,0-0.8,0.1c-0.3,0.1-0.4,0.3-0.5,0.6c0,0,0,0.1,0,0.1c0,0,0,0,0-0.1C29.3,25.7,29.3,25.6,29.3,25.6z"/>
		</g>
		<path class="st10" d="M24,30.6H8.5c-0.5,0-1-0.4-1-1V15.2c0-0.5,0.4-1,1-1h9.8c0,0-1,2.9,0,7.5C19.6,27.2,24,30.6,24,30.6z"/>
		<path class="st11" d="M33.4,15.2v14.4c0,0.5-0.4,1-1,1H8.6c-0.5,0-1-0.4-1-1V15.2c0-0.5,0.4-1,1-1h23.8
			C32.9,14.2,33.4,14.7,33.4,15.2z"/>
		<g>
			<circle class="st12" cx="30.5" cy="17.3" r="1.4"/>
			<circle class="st8" cx="30.5" cy="19.2" r="1.4"/>
			<path class="st13" d="M30.5,18.6c0.4,0,0.7-0.2,1-0.4c-0.2-0.2-0.6-0.4-1-0.4s-0.7,0.2-1,0.4C29.8,18.5,30.1,18.6,30.5,18.6z"/>
		</g>
	</g>
</g>
</svg>

