<?xml version="1.0" encoding="utf-8"?>
<!-- Generator: Adobe Illustrator 24.0.3, SVG Export Plug-In . SVG Version: 6.00 Build 0)  -->
<svg version="1.1" id="Layer_1" xmlns="http://www.w3.org/2000/svg" xmlns:xlink="http://www.w3.org/1999/xlink" x="0px" y="0px"
	 viewBox="0 0 48 48" style="enable-background:new 0 0 48 48;" xml:space="preserve">
<style type="text/css">
	.st0{fill:#FFFFFF;stroke:#3564FD;stroke-width:0.6434;stroke-linecap:round;stroke-linejoin:round;stroke-miterlimit:10;}
	.st1{fill:#FFB3B2;}
	.st2{fill:none;stroke:#FFFFFF;stroke-width:1.2869;stroke-linecap:round;stroke-linejoin:round;stroke-miterlimit:10;}
	.st3{fill:#3564FD;}
	.st4{fill:none;stroke:#3564FD;stroke-width:0.6434;stroke-linecap:round;stroke-linejoin:round;stroke-miterlimit:10;}
	.st5{clip-path:url(#SVGID_1_);fill-rule:evenodd;clip-rule:evenodd;fill:#FFB3B2;}
	.st6{clip-path:url(#SVGID_1_);fill-rule:evenodd;clip-rule:evenodd;fill:#FF6766;}
	.st7{fill:#FF6766;}
	.st8{opacity:0.9;fill:#3E6BFD;}
	.st9{fill:#3E6BFD;}
	.st10{fill:#FFFFFF;}
</style>
<g>
	<g>
		<path class="st0" d="M21.6,11.6H10.1c-2.2,0-3.9,1.6-3.9,3.6v28.3c0,2,1.8,3.6,3.9,3.6h11.5c2.2,0,3.9-1.6,3.9-3.6V15.2
			C25.5,13.2,23.8,11.6,21.6,11.6z"/>
		<g>
			<circle class="st1" cx="15.8" cy="29.3" r="7.3"/>
		</g>
		<polyline class="st2" points="12.8,29.8 14.7,31.7 19,27.5 		"/>
		<path class="st3" d="M18.3,13.1h-4.9c-0.4,0-0.7-0.3-0.7-0.7v0c0-0.4,0.3-0.7,0.7-0.7h4.9c0.4,0,0.7,0.3,0.7,0.7v0
			C19,12.7,18.7,13.1,18.3,13.1z"/>
		<line class="st4" x1="6.2" y1="43.4" x2="25.5" y2="43.4"/>
	</g>
	<g>
		<circle class="st0" cx="36.5" cy="34.2" r="5.3"/>
		<g>
			<path class="st3" d="M38.1,35.6c-0.1,0.1-0.2,0.3-0.3,0.4c-0.1,0.1-0.3,0.2-0.4,0.3c-0.2,0.1-0.4,0.1-0.6,0.1V37h-0.4v-0.6
				c-0.3,0-0.6-0.1-0.8-0.2c-0.3-0.1-0.5-0.3-0.7-0.5l0.3-0.4c0.2,0.2,0.4,0.3,0.6,0.4c0.2,0.1,0.4,0.2,0.7,0.2v-1.6
				c-0.5-0.1-0.8-0.3-1.1-0.5C35.1,33.6,35,33.3,35,33c0-0.2,0-0.3,0.1-0.5c0.1-0.1,0.2-0.3,0.3-0.4c0.1-0.1,0.3-0.2,0.4-0.3
				c0.2-0.1,0.3-0.1,0.5-0.1v-0.4h0.4v0.4c0.2,0,0.5,0.1,0.7,0.2c0.2,0.1,0.4,0.2,0.6,0.4l-0.3,0.4c-0.2-0.1-0.3-0.2-0.5-0.3
				c-0.2-0.1-0.3-0.1-0.5-0.2v1.6c0.5,0.1,0.8,0.3,1.1,0.5c0.2,0.2,0.3,0.5,0.3,0.8C38.2,35.3,38.1,35.4,38.1,35.6z M36.4,32.2
				c-0.1,0-0.3,0-0.4,0.1c-0.1,0-0.2,0.1-0.3,0.2c-0.1,0.1-0.1,0.1-0.2,0.2c0,0.1-0.1,0.2-0.1,0.3c0,0.1,0,0.2,0,0.3
				c0,0.1,0.1,0.1,0.1,0.2c0.1,0.1,0.2,0.1,0.3,0.2c0.1,0.1,0.3,0.1,0.4,0.1V32.2z M37.6,34.9c0-0.1-0.1-0.1-0.1-0.2
				c-0.1-0.1-0.2-0.1-0.3-0.2c-0.1-0.1-0.3-0.1-0.4-0.1v1.5c0.3,0,0.5-0.1,0.7-0.2c0.2-0.1,0.2-0.3,0.2-0.5
				C37.7,35,37.6,35,37.6,34.9z"/>
		</g>
	</g>
	<g>
		<g>
			<g>
				<defs>
					<path id="SVGID_55_" d="M37.1,26.6H25.3c-1.2,0-2.2-1-2.2-2.2V3.2c0-1.2,1-2.2,2.2-2.2h11.8c1.2,0,2.2,1,2.2,2.2v21.3
						C39.2,25.6,38.3,26.6,37.1,26.6z"/>
				</defs>
				<use xlink:href="#SVGID_55_"  style="overflow:visible;fill:#FFFFFF;"/>
				<clipPath id="SVGID_1_">
					<use xlink:href="#SVGID_55_"  style="overflow:visible;"/>
				</clipPath>
				<path class="st5" d="M39.3,8c-2.8,0-5.5,0.7-8,1.8c3.2,1.4,5.9,3.7,8,6.5V8z"/>
				<path class="st6" d="M23,1.6v19c3.6-5.2,9.5-8.6,16.3-8.7V1.6c0-0.6-0.5-1.1-1.1-1.1H24.1C23.5,0.5,23,1,23,1.6"/>
				
					<use xlink:href="#SVGID_55_"  style="overflow:visible;fill:none;stroke:#3564FD;stroke-width:0.6434;stroke-linecap:round;stroke-linejoin:round;stroke-miterlimit:10;"/>
			</g>
			<g>
				<path class="st7" d="M29.6,21.4c0.4,0,0.7,0.2,0.8,0.4c0,0,0,0.1-0.1,0.1c0,0-0.1,0-0.1,0c-1,0-1.1,2.4-2.4,2.4
					c-0.4,0-0.7-0.2-0.8-0.4c0,0,0-0.1,0-0.1c0,0,0.1,0,0.2,0C28.1,23.9,28.3,21.4,29.6,21.4z"/>
				<path class="st8" d="M26.5,22.8c0,0.6,0.1,1.6,1,1.7c0,0,0,0.1,0,0.1c-0.1,0-0.2,0-0.3,0c-0.8,0-1.7-0.6-1.7-1.8
					c0-0.2,0.2-0.5,0.5-0.5C26.4,22.3,26.5,22.5,26.5,22.8z"/>
				<path class="st9" d="M30.8,22.9c0-0.6-0.1-1.6-1-1.7c0,0,0-0.1,0-0.1c0.1,0,0.2,0,0.3,0c0.8,0,1.7,0.6,1.7,1.8
					c0,0.2-0.2,0.5-0.5,0.5C31,23.4,30.8,23.2,30.8,22.9z"/>
			</g>
			<g>
				<path class="st10" d="M33,5.6c0.1,0.1,0.1,0.2,0.1,0.2c0,0.1,0,0.2,0,0.3c0,0.1,0,0.2,0,0.3c0,0.1-0.1,0.2-0.1,0.2
					C33,6.8,33,6.9,33.1,7c0.1,0.1,0.2,0.1,0.3,0c0.1-0.1,0.1-0.2,0.2-0.4c0-0.1,0.1-0.3,0.1-0.4c0-0.1,0-0.3-0.1-0.4
					c0-0.1-0.1-0.3-0.2-0.4c-0.1-0.1-0.2-0.1-0.3,0C33,5.4,33,5.5,33,5.6 M33.8,5.2c0.2,0.3,0.3,0.6,0.3,0.9c0,0.3-0.1,0.7-0.3,0.9
					c-0.1,0.1,0,0.2,0.1,0.3c0.1,0.1,0.2,0,0.3-0.1c0.2-0.3,0.3-0.7,0.3-1.2c0-0.4-0.1-0.8-0.3-1.2c-0.1-0.1-0.2-0.1-0.3-0.1
					C33.8,5,33.7,5.1,33.8,5.2 M34.6,4.8C34.8,5.2,35,5.7,35,6.2c0,0.5-0.1,1-0.4,1.4c-0.1,0.1,0,0.2,0.1,0.3c0.1,0.1,0.2,0,0.3-0.1
					c0.3-0.5,0.4-1,0.4-1.6c0-0.6-0.2-1.1-0.4-1.6c-0.1-0.1-0.2-0.1-0.3-0.1C34.6,4.5,34.5,4.7,34.6,4.8 M35.4,4.4
					c0.3,0.5,0.5,1.1,0.5,1.8c0,0.7-0.2,1.3-0.5,1.8c-0.1,0.1,0,0.2,0.1,0.3c0.1,0.1,0.2,0,0.3-0.1c0.3-0.6,0.5-1.3,0.5-2
					c0-0.7-0.2-1.4-0.5-2C35.8,4,35.6,4,35.5,4.1C35.4,4.1,35.4,4.3,35.4,4.4"/>
			</g>
		</g>
	</g>
</g>
</svg>
