<?xml version="1.0" encoding="utf-8"?>
<!-- Generator: Adobe Illustrator 24.0.3, SVG Export Plug-In . SVG Version: 6.00 Build 0)  -->
<svg version="1.1" id="Layer_1" xmlns="http://www.w3.org/2000/svg" xmlns:xlink="http://www.w3.org/1999/xlink" x="0px" y="0px"
	 viewBox="0 0 48 48" style="enable-background:new 0 0 48 48;" xml:space="preserve">
<style type="text/css">
	.st0{fill:#FFFFFF;stroke:#3564FD;stroke-width:0.6241;stroke-linecap:round;stroke-linejoin:round;stroke-miterlimit:10;}
	.st1{fill:#3564FD;}
	.st2{fill:#FFB3B2;}
	.st3{fill:#FFFFFF;stroke:#3564FD;stroke-width:0.6241;stroke-miterlimit:10;}
	.st4{fill:none;stroke:#3564FD;stroke-width:0.6241;stroke-linecap:round;stroke-linejoin:round;stroke-miterlimit:10;}
</style>
<g>
	<path class="st0" d="M46.5,16.4v17.9c0,2.1-1.7,3.9-3.9,3.9H7.9c-2.1,0-3.9-1.7-3.9-3.9V16.4c0-2.1,1.7-3.9,3.9-3.9h34.7
		C44.8,12.6,46.5,14.3,46.5,16.4z"/>
	<path class="st1" d="M44,13.6v17.9c0,2.1-1.7,3.9-3.9,3.9H5.4c-2.1,0-3.9-1.7-3.9-3.9V13.6c0-2.1,1.7-3.9,3.9-3.9h34.7
		C42.2,9.8,44,11.5,44,13.6z"/>
	<path class="st2" d="M32.8,20.4h-9.6c-0.3,0-0.5-0.2-0.5-0.5v0c0-0.3,0.2-0.5,0.5-0.5h9.6c0.3,0,0.5,0.2,0.5,0.5v0
		C33.2,20.1,33,20.4,32.8,20.4z"/>
	<path class="st2" d="M39.7,23.4H23.2c-0.3,0-0.5-0.2-0.5-0.5v0c0-0.3,0.2-0.5,0.5-0.5h16.5c0.3,0,0.5,0.2,0.5,0.5v0
		C40.1,23.2,39.9,23.4,39.7,23.4z"/>
	<path class="st2" d="M39.8,20.4h-4.6c-0.2,0-0.3-0.1-0.3-0.3v-0.3c0-0.2,0.1-0.3,0.3-0.3h4.6c0.2,0,0.3,0.1,0.3,0.3V20
		C40.1,20.2,40,20.4,39.8,20.4z"/>
	<path class="st2" d="M32.8,26.4h-9.6c-0.3,0-0.5-0.2-0.5-0.5v0c0-0.3,0.2-0.5,0.5-0.5h9.6c0.3,0,0.5,0.2,0.5,0.5v0
		C33.2,26.2,33,26.4,32.8,26.4z"/>
	<path class="st2" d="M39.8,26.4h-4.6c-0.2,0-0.3-0.1-0.3-0.3v-0.3c0-0.2,0.1-0.3,0.3-0.3h4.6c0.2,0,0.3,0.1,0.3,0.3v0.3
		C40.1,26.2,40,26.4,39.8,26.4z"/>
	<circle class="st3" cx="11.8" cy="22.6" r="7"/>
	<path class="st4" d="M11.8,31.1c2.3,0,4.3-1.1,5.6-2.8c-0.9-2.3-3-3.9-5.6-3.9S7.1,26,6.2,28.3C7.5,30,9.5,31.1,11.8,31.1z"/>
	<circle class="st4" cx="11.8" cy="20.9" r="2"/>
</g>
</svg>
