<?xml version="1.0" encoding="utf-8"?>
<!-- Generator: Adobe Illustrator 24.0.3, SVG Export Plug-In . SVG Version: 6.00 Build 0)  -->
<svg version="1.1" id="Layer_1" xmlns="http://www.w3.org/2000/svg" xmlns:xlink="http://www.w3.org/1999/xlink" x="0px" y="0px"
	 viewBox="0 0 48 48" style="enable-background:new 0 0 48 48;" xml:space="preserve">
<style type="text/css">
	.st0{fill:#FFFFFF;}
	.st1{fill:#3564FD;}
	.st2{fill:none;stroke:#3564FD;stroke-width:0.4783;stroke-linecap:round;stroke-linejoin:round;stroke-miterlimit:10;}
	.st3{fill:none;stroke:#FFFFFF;stroke-width:0.4783;stroke-linecap:round;stroke-linejoin:round;stroke-miterlimit:10;}
	.st4{fill:#FFB3B2;}
</style>
<g>
	<g>
		<path class="st0" d="M23.9,47.7C10.9,47.7,0.2,37.1,0.2,24S10.9,0.3,23.9,0.3C37,0.3,47.6,10.9,47.6,24S37,47.7,23.9,47.7z"/>
		<path class="st1" d="M23.9,0.6c12.9,0,23.4,10.5,23.4,23.4S36.8,47.4,23.9,47.4S0.5,36.9,0.5,24S11,0.6,23.9,0.6 M23.9,0.1
			C10.7,0.1,0,10.8,0,24s10.7,23.9,23.9,23.9S47.8,37.2,47.8,24S37.1,0.1,23.9,0.1L23.9,0.1z"/>
	</g>
	<line class="st2" x1="0.4" y1="27.1" x2="14.5" y2="27.1"/>
	<line class="st2" x1="34.3" y1="26.9" x2="48" y2="26.9"/>
	<path class="st1" d="M33.8,10.7H17.6c-0.6,0-1.1,0.5-1.1,1.1v20.9c0,0.6,0.5,1.1,1.1,1.1h16.3c0.6,0,1.1-0.5,1.1-1.1V11.7
		C34.9,11.1,34.4,10.7,33.8,10.7z"/>
	<path class="st1" d="M19.8,23.9h-7.3c-0.7,0-1.3,0.6-1.3,1.3v7.3c0,0.7,0.6,1.3,1.3,1.3h7.3c0.7,0,1.3-0.6,1.3-1.3v-7.3
		C21.1,24.5,20.5,23.9,19.8,23.9z"/>
	<path class="st0" d="M20.1,27.9h-3.2c-0.2,0-0.4,0.2-0.4,0.4V34c0,0.2,0.2,0.4,0.4,0.4h3.2c0.2,0,0.4-0.2,0.4-0.4v-5.7
		C20.5,28.1,20.3,27.9,20.1,27.9z"/>
	<line class="st3" x1="17.4" y1="18.8" x2="34.9" y2="18.8"/>
	<line class="st3" x1="17.4" y1="14.9" x2="34.9" y2="14.9"/>
	<g>
		<circle class="st4" cx="32.8" cy="14.6" r="6.1"/>
	</g>
	<g>
		<line class="st3" x1="31" y1="16.4" x2="34.6" y2="12.8"/>
		<circle class="st3" cx="32.8" cy="14.6" r="2.7"/>
	</g>
	<path class="st4" d="M34.6,25.3h-23c-0.4,0-0.7-0.3-0.7-0.7V23c0-0.4,0.3-0.7,0.7-0.7h23c0.4,0,0.7,0.3,0.7,0.7v1.6
		C35.4,25,35,25.3,34.6,25.3z"/>
	<line class="st3" x1="12.9" y1="23.8" x2="16.5" y2="23.8"/>
	<line class="st3" x1="21.7" y1="11.6" x2="21.7" y2="21.2"/>
</g>
</svg>
