<svg version="1.1" xmlns="http://www.w3.org/2000/svg" xmlns:xlink="http://www.w3.org/1999/xlink" x="0px" y="0px" viewBox="0 0 48 48" style="enable-background:new 0 0 48 48;" xml:space="preserve">
<style type="text/css">
	.st0{fill:none;}
	.st1{fill:url(#SVGID_1_);}
	.st2{fill:#FFFFFF;stroke:#3E6BFD;stroke-width:0.5012;stroke-linecap:round;stroke-miterlimit:10;}
	.st3{fill:#3E6BFD;}
	.st4{fill:#8EA8FF;}
	.st5{fill:url(#SVGID_2_);}
</style>
<defs>
</defs>
<g>
	<g>
		<linearGradient id="SVGID_1_" gradientUnits="userSpaceOnUse" x1="0" y1="24" x2="48" y2="24">
			<stop  offset="0" style="stop-color:#FFFFFF"/>
			<stop  offset="0.3078" style="stop-color:#EDF2FF"/>
			<stop  offset="0.6482" style="stop-color:#E2EAFF"/>
			<stop  offset="1" style="stop-color:#DEE7FF"/>
		</linearGradient>
		<path class="st1" d="M31.1,3.7C17,4.7-1.3,20.3,0.1,34.7S33,46.8,43.7,31.8C51.7,20.4,49.1,2.5,31.1,3.7z"/>
		<g>
			<circle class="st2" cx="25.7" cy="24.7" r="13.6"/>
			<path class="st3" d="M7.1,43.2L7.1,43.2c-0.5-0.5-0.5-1.3,0-1.7l8.1-8.1l1.7,1.7l-8.1,8.1C8.4,43.7,7.6,43.7,7.1,43.2z"/>
		</g>
	</g>
	<path class="st4" d="M26.1,23.8c-1.3-0.5-2.5-0.9-2.5-1.9c0-1,0.8-1.6,2.1-1.6c1.3,0,1.8,0.4,2.6,1l0.2,0.1l0.8-0.8l-0.2-0.2
		c-0.7-0.6-1.4-1.2-2.7-1.3v-2.4h-1.1v2.4c-1.7,0.2-2.9,1.3-2.9,2.8c0,1.7,1.7,2.4,3.3,3c1.4,0.5,2.7,1.1,2.7,2.2
		c0,1.1-0.9,1.7-2.4,1.7c-1.4,0-2.6-0.7-3.2-1.2l-0.2-0.2l-0.7,0.9l0.2,0.1c0.4,0.4,1.6,1.2,3.3,1.4v2.6h1.1V30
		c1.9-0.2,3.2-1.4,3.2-2.9C29.5,25.2,27.7,24.4,26.1,23.8z"/>
</g>
</svg>
