<svg version="1.1" xmlns="http://www.w3.org/2000/svg" xmlns:xlink="http://www.w3.org/1999/xlink" x="0px" y="0px" viewBox="0 0 48 48" style="enable-background:new 0 0 48 48;" xml:space="preserve">
<style type="text/css">
	.st0{fill:none;}
	.st1{fill:url(#SVGID_1_);}
	.st2{fill:#3E6BFD;stroke:#3E6BFD;stroke-width:0.5019;stroke-linecap:round;stroke-miterlimit:10;}
	.st3{fill:#FFFFFF;stroke:#3E6BFD;stroke-width:0.5019;stroke-linecap:round;stroke-miterlimit:10;}
	.st4{fill:none;stroke:#3E6BFD;stroke-width:0.5019;stroke-linecap:round;stroke-miterlimit:10;}
	.st5{fill:#3E6BFD;}
	.st6{fill:#8EA8FF;}
	.st7{fill:url(#SVGID_2_);}
</style>
<defs>
</defs>
<g>
	<linearGradient id="SVGID_1_" gradientUnits="userSpaceOnUse" x1="0" y1="24" x2="48" y2="24">
		<stop  offset="0" style="stop-color:#FFFFFF"/>
		<stop  offset="0.3078" style="stop-color:#EDF2FF"/>
		<stop  offset="0.6482" style="stop-color:#E2EAFF"/>
		<stop  offset="1" style="stop-color:#DEE7FF"/>
	</linearGradient>
	<path class="st1" d="M31.2,4C17,5-1.3,20.6,0.1,35s33.4,10.2,43.7-2.9C51.7,22,49.1,2.8,31.2,4z"/>
	<g>
		<path class="st2" d="M33.5,34.5H42c0,0,0,2,0,3.3c0,1.9-0.7,3.5-3,3.5c-3.7,0-6.1,0-6.1,0L33.5,34.5z"/>
		<path class="st3" d="M35.9,22.5c0,7.9,0,14.9,0,15.5c0,1,0.3,3.3,3,3.3c2.7,0-23.3,0-25.8,0s-3-2.1-3-3.3c0-0.3,0-1.1,0-3.5v-7.7
			V15.3v-2.4V9.5c0-0.5,0.4-0.8,0.8-0.8h24c0.5,0,1,0.4,1,1v13.6"/>
		<line class="st4" x1="13.4" y1="20.4" x2="32.9" y2="20.4"/>
		<line class="st4" x1="13.4" y1="24.7" x2="32.9" y2="24.7"/>
		<line class="st4" x1="13.4" y1="29" x2="32.9" y2="29"/>
		<g>
			<circle class="st3" cx="23.4" cy="24.7" r="6.8"/>
			<path class="st5" d="M11.8,36.3L11.8,36.3c-0.2-0.2-0.2-0.6,0-0.9l6.4-6.4l0.9,0.9l-6.4,6.4C12.4,36.5,12,36.5,11.8,36.3z"/>
		</g>
		<g>
			<g>
				<path class="st6" d="M20.3,27.8c0,0-0.1,0-0.1,0c-0.2-0.1-0.2-0.3-0.2-0.4l3.1-6.9c0.1-0.1,0.2-0.2,0.3-0.2
					c0.1,0,0.2,0.1,0.3,0.2l3.1,6.9c0.1,0.2,0,0.4-0.2,0.4c-0.2,0.1-0.4,0-0.4-0.2l-2.8-6.2l-2.8,6.2C20.6,27.7,20.5,27.8,20.3,27.8
					z"/>
			</g>
			<g>
				<path class="st6" d="M25.1,25.1h-3.4c-0.2,0-0.3-0.1-0.3-0.3c0-0.2,0.1-0.3,0.3-0.3h3.4c0.2,0,0.3,0.1,0.3,0.3
					C25.4,25,25.3,25.1,25.1,25.1z"/>
			</g>
		</g>
	</g>
</g>
</svg>
