<?xml version="1.0" encoding="utf-8"?>
<!-- Generator: Adobe Illustrator 24.0.3, SVG Export Plug-In . SVG Version: 6.00 Build 0)  -->
<svg version="1.1" id="Layer_1" xmlns="http://www.w3.org/2000/svg" xmlns:xlink="http://www.w3.org/1999/xlink" x="0px" y="0px"
	 viewBox="0 0 48 48" style="enable-background:new 0 0 48 48;" xml:space="preserve">
<style type="text/css">
	.st0{fill:#FFFFFF;}
	.st1{fill:#3564FD;}
	.st2{fill:#FFB3B2;}
	.st3{fill:none;stroke:#FFFFFF;stroke-width:0.48;stroke-linecap:round;stroke-linejoin:round;stroke-miterlimit:10;}
	.st4{fill:none;stroke:#3564FD;stroke-width:0.48;stroke-linecap:round;stroke-linejoin:round;stroke-miterlimit:10;}
</style>
<g>
	<g>
		<circle class="st0" cx="24" cy="24" r="23.8"/>
		<path class="st1" d="M24,0.5C37,0.5,47.5,11,47.5,24S37,47.5,24,47.5S0.5,37,0.5,24S11,0.5,24,0.5 M24,0C10.7,0,0,10.7,0,24
			s10.7,24,24,24s24-10.7,24-24S37.3,0,24,0L24,0z"/>
	</g>
	<g>
		<g>
			<path class="st1" d="M12.7,15.8L12.7,15.8c3.5-4.3,9.8-4.9,14.1-1.4c4.3,3.5,4.9,9.8,1.4,14.1v0c-3.5,4.3-9.8,4.9-14.1,1.4
				C9.8,26.4,9.2,20.1,12.7,15.8z M15.8,27.8c3.1,2.6,7.7,2.1,10.3-1h0c2.6-3.1,2.1-7.7-1-10.3c-3.1-2.6-7.7-2.1-10.3,1v0
				C12.2,20.7,12.7,25.3,15.8,27.8z"/>
			<path class="st1" d="M36.9,36.4l0.2-0.2c0.5-0.6,0.4-1.5-0.2-2l-9.4-7.7l-2,2.4l9.4,7.7C35.5,37.1,36.4,37,36.9,36.4z"/>
		</g>
	</g>
	<g>
		<circle class="st2" cx="32.9" cy="14.6" r="6.1"/>
	</g>
	<g>
		<line class="st3" x1="31.2" y1="16.3" x2="34.7" y2="12.8"/>
		<circle class="st3" cx="32.9" cy="14.6" r="2.7"/>
	</g>
	<g>
		<path class="st4" d="M24.9,22.4c0.2-0.4,0.3-0.9,0.3-1.5c0-1-0.3-1.8-1-2.5c-0.7-0.6-1.8-1.1-3.3-1.5v-4c-0.4,0.1-0.8,0.2-1.2,0.4
			v3.4c-0.5-0.1-1-0.3-1.4-0.5c-0.4-0.2-0.6-0.4-0.8-0.6c-0.2-0.2-0.3-0.4-0.4-0.7c0,0,0-0.1,0-0.1c-0.4,0.3-0.7,0.7-1,1.1v0
			c0,0.1-0.1,0.1-0.1,0.2c0.2,0.2,0.3,0.5,0.6,0.7c0.7,0.6,1.8,1.1,3.3,1.4v5c-0.8-0.1-1.5-0.3-2.1-0.6c-0.4-0.2-0.9-0.5-1.3-0.9
			c-0.3-0.2-0.7-0.2-0.9,0.1l-0.1,0.2c-0.2,0.3-0.2,0.7,0.1,0.9c0.6,0.4,1.1,0.8,1.7,1c0.8,0.3,1.6,0.6,2.5,0.6V26
			c0,0.4,0.3,0.6,0.6,0.6h0c0.4,0,0.6-0.3,0.6-0.6v-1.3c0.6,0,1.2-0.2,1.7-0.4c0.5-0.2,1-0.5,1.4-0.8C24.4,23.2,24.7,22.8,24.9,22.4
			z M22.9,22.6c-0.5,0.4-1.2,0.7-2,0.7v-4.8c0.6,0.1,1,0.3,1.4,0.4s0.6,0.3,0.9,0.5c0.2,0.2,0.4,0.4,0.4,0.7
			c0.1,0.2,0.1,0.5,0.1,0.8C23.7,21.7,23.4,22.2,22.9,22.6z"/>
	</g>
</g>
</svg>
