<?xml version="1.0" encoding="utf-8"?>
<!-- Generator: Adobe Illustrator 24.0.3, SVG Export Plug-In . SVG Version: 6.00 Build 0)  -->
<svg version="1.1" id="Layer_1" xmlns="http://www.w3.org/2000/svg" xmlns:xlink="http://www.w3.org/1999/xlink" x="0px" y="0px"
	 viewBox="0 0 48 48" style="enable-background:new 0 0 48 48;" xml:space="preserve">
<style type="text/css">
	.st0{fill:#FFFFFF;}
	.st1{fill:#3564FD;}
	.st2{fill:#FFFFFF;stroke:#3564FD;stroke-width:0.48;stroke-linecap:round;stroke-linejoin:round;stroke-miterlimit:10;}
	.st3{fill:none;stroke:#3564FD;stroke-width:0.48;stroke-linecap:round;stroke-linejoin:round;stroke-miterlimit:10;}
	.st4{fill:#FFB3B2;}
	.st5{fill:none;stroke:#FFFFFF;stroke-width:0.48;stroke-linecap:round;stroke-linejoin:round;stroke-miterlimit:10;}
</style>
<g>
	<g>
		<circle class="st0" cx="24" cy="24" r="23.8"/>
		<path class="st1" d="M24,0.5C37,0.5,47.5,11,47.5,24S37,47.5,24,47.5S0.5,37,0.5,24S11,0.5,24,0.5 M24,0C10.7,0,0,10.7,0,24
			s10.7,24,24,24s24-10.7,24-24S37.3,0,24,0L24,0z"/>
	</g>
	<g>
		<path class="st1" d="M16.7,13.7c0-1.5-1.2-2.7-2.7-2.7h0c-1.5,0-2.7,1.2-2.7,2.7v2.9c0,0.7,0.6,1.3,1.3,1.3h4L16.7,13.7z"/>
		<path class="st2" d="M14,11.1h16.6c1.3,0,2.3,1,2.3,2.3v24.4h-16c-1.5,0-2.8-1.3-2.8-2.8L14,11.1z"/>
		<path class="st2" d="M20.1,34.1h16.2c0.7,0,1.3,0.6,1.3,1.3c0,1.1-0.3,2.5-2.2,2.5c-2.3,0-18.6,0-18.6,0s1.6-0.5,1.9-2.6
			C18.9,34.6,19.5,34.1,20.1,34.1z"/>
	</g>
	<g>
		<line class="st3" x1="20.1" y1="23.6" x2="26.6" y2="17.1"/>
		<circle class="st3" cx="21.3" cy="18.1" r="1.5"/>
		<circle class="st3" cx="25.7" cy="22.6" r="1.5"/>
	</g>
	<path class="st1" d="M29.7,28.7H18.1c-0.2,0-0.3-0.1-0.3-0.3l0,0c0-0.2,0.1-0.3,0.3-0.3h11.6c0.2,0,0.3,0.1,0.3,0.3l0,0
		C30,28.5,29.8,28.7,29.7,28.7z"/>
	<path class="st1" d="M29.7,30.4H18.1c-0.2,0-0.3-0.1-0.3-0.3l0,0c0-0.2,0.1-0.3,0.3-0.3h11.6c0.2,0,0.3,0.1,0.3,0.3l0,0
		C30,30.3,29.8,30.4,29.7,30.4z"/>
	<g>
		<circle class="st4" cx="32.9" cy="14.6" r="6.1"/>
	</g>
	<g>
		<line class="st5" x1="31.2" y1="16.3" x2="34.7" y2="12.8"/>
		<circle class="st5" cx="32.9" cy="14.6" r="2.7"/>
	</g>
</g>
</svg>
