<?xml version="1.0" encoding="utf-8"?>
<!-- Generator: Adobe Illustrator 24.0.3, SVG Export Plug-In . SVG Version: 6.00 Build 0)  -->
<svg version="1.1" id="Layer_1" xmlns="http://www.w3.org/2000/svg" xmlns:xlink="http://www.w3.org/1999/xlink" x="0px" y="0px"
	 viewBox="0 0 48 48" style="enable-background:new 0 0 48 48;" xml:space="preserve">
<style type="text/css">
	.st0{fill:#FFFFFF;}
	.st1{fill:#3564FD;}
	.st2{fill:#FFFFFF;stroke:#3564FD;stroke-width:0.48;stroke-linecap:round;stroke-linejoin:round;stroke-miterlimit:10;}
	.st3{fill:#FFB3B2;}
	.st4{fill:none;stroke:#FFFFFF;stroke-width:0.48;stroke-linecap:round;stroke-linejoin:round;stroke-miterlimit:10;}
</style>
<g>
	<circle class="st0" cx="24" cy="24" r="23.8"/>
	<path class="st1" d="M24,0.5C37,0.5,47.5,11,47.5,24S37,47.5,24,47.5S0.5,37,0.5,24S11,0.5,24,0.5 M24,0C10.7,0,0,10.7,0,24
		s10.7,24,24,24s24-10.7,24-24S37.3,0,24,0L24,0z"/>
</g>
<g>
	<g>
		<path class="st1" d="M16.9,13.5c0-1.5-1.2-2.7-2.7-2.7h0c-1.5,0-2.7,1.2-2.7,2.7v2.9c0,0.7,0.6,1.3,1.3,1.3h4L16.9,13.5z"/>
		<path class="st2" d="M14,11h16.6c1.3,0,2.3,1,2.3,2.3v24.4h-16c-1.5,0-2.8-1.3-2.8-2.8L14,11z"/>
		<path class="st2" d="M20.1,34h16.2c0.7,0,1.3,0.6,1.3,1.3c0,1.1-0.3,2.5-2.2,2.5c-2.3,0-18.6,0-18.6,0s1.6-0.5,1.9-2.6
			C18.9,34.4,19.4,34,20.1,34z"/>
	</g>
	<g>
		<circle class="st3" cx="33.1" cy="14.4" r="6.1"/>
	</g>
	<g>
		<line class="st4" x1="31.3" y1="16.2" x2="34.8" y2="12.6"/>
		<circle class="st4" cx="33.1" cy="14.4" r="2.7"/>
	</g>
	<path class="st1" d="M23.6,26H18c-0.1,0-0.2-0.1-0.2-0.2v-0.2c0-0.1,0.1-0.2,0.2-0.2h5.7c0.1,0,0.2,0.1,0.2,0.2v0.2
		C23.9,25.9,23.8,26,23.6,26z"/>
	<path class="st1" d="M23.6,27.7H18c-0.1,0-0.2-0.1-0.2-0.2v-0.2c0-0.1,0.1-0.2,0.2-0.2h5.7c0.1,0,0.2,0.1,0.2,0.2v0.2
		C23.9,27.7,23.8,27.7,23.6,27.7z"/>
	<g>
		<g>
			<path class="st1" d="M23.1,22.8L23.1,22.8c-1.9-2.4-5.4-2.7-7.8-0.8c-2.4,1.9-2.7,5.4-0.8,7.8v0c1.9,2.4,5.4,2.7,7.8,0.8
				C24.7,28.7,25,25.2,23.1,22.8z M21.2,29.3c-1.6,1.3-4.1,1.1-5.4-0.5h0c-1.3-1.6-1.1-4.1,0.5-5.4c1.6-1.3,4.1-1.1,5.4,0.5v0
				C23.1,25.6,22.9,28,21.2,29.3z"/>
			<path class="st1" d="M9.1,34.3L9.1,34.3c-0.4-0.5-0.3-1.1,0.2-1.5l5.6-4.6l1.4,1.7l-5.6,4.6C10.1,34.9,9.4,34.8,9.1,34.3z"/>
		</g>
	</g>
	<line class="st2" x1="23.9" y1="25.8" x2="30.6" y2="25.8"/>
	<line class="st2" x1="23.9" y1="27.5" x2="30.6" y2="27.5"/>
</g>
</svg>
