<!-- Generator: Adobe Illustrator 24.0.3, SVG Export Plug-In  -->
<svg version="1.1" xmlns="http://www.w3.org/2000/svg" xmlns:xlink="http://www.w3.org/1999/xlink" x="0px" y="0px" viewBox="0 0 48 48" style="enable-background:new 0 0 48 48;" xml:space="preserve">
<style type="text/css">
	.st0{fill:none;}
	.st1{fill:url(#SVGID_1_);}
	.st2{fill:#3E6BFD;stroke:#3E6BFD;stroke-width:0.5019;stroke-linecap:round;stroke-miterlimit:10;}
	.st3{fill:#FFFFFF;stroke:#3E6BFD;stroke-width:0.5019;stroke-linecap:round;stroke-miterlimit:10;}
	.st4{fill:#8EA8FF;}
	.st5{fill:#3E6BFD;}
	.st6{fill:none;stroke:#3E6BFD;stroke-width:0.5019;stroke-linecap:round;stroke-miterlimit:10;}
	.st7{fill:none;stroke:#FFFFFF;stroke-width:0.5019;stroke-linecap:round;stroke-linejoin:round;stroke-miterlimit:10;}
	.st8{fill:url(#SVGID_2_);}
</style>
<defs>
</defs>
<g>
	<linearGradient id="SVGID_1_" gradientUnits="userSpaceOnUse" x1="0" y1="24" x2="48" y2="24">
		<stop  offset="0" style="stop-color:#FFFFFF"/>
		<stop  offset="0.3078" style="stop-color:#EDF2FF"/>
		<stop  offset="0.6482" style="stop-color:#E2EAFF"/>
		<stop  offset="1" style="stop-color:#DEE7FF"/>
	</linearGradient>
	<path class="st1" d="M31.2,4C17,5-1.3,20.6,0.1,35s33.4,10.2,43.7-2.9C51.7,22,49.1,2.8,31.2,4z"/>
	<path class="st2" d="M35,34.5h8.5c0,0,0,2,0,3.3c0,1.9-0.7,3.5-3,3.5c-3.7,0-6.1,0-6.1,0L35,34.5z"/>
	<path class="st3" d="M37.5,23.2V9.7c0-0.5-0.4-1-1-1H18h-2.6h-2.9c-0.5,0-0.8,0.4-0.8,0.8v3.3V16v10.9v7.7c0,2.4,0,3.2,0,3.5
		c0,1.2,0.6,3.3,3,3.3s28.4,0,25.8,0s-3-2.3-3-3.3c0-0.6,0-7.5,0-15.5"/>
	<circle class="st4" cx="24.6" cy="20.3" r="6.7"/>
	<g>
		<circle class="st5" cx="17.5" cy="30.5" r="1"/>
		<line class="st6" x1="20.3" y1="30.5" x2="31.5" y2="30.5"/>
	</g>
	<g>
		<circle class="st5" cx="17.5" cy="34.3" r="1"/>
		<line class="st6" x1="20.3" y1="34.3" x2="31.5" y2="34.3"/>
	</g>
	<g>
		<line class="st7" x1="27.4" y1="17.5" x2="21.8" y2="23.1"/>
		<circle class="st7" cx="22.5" cy="18.2" r="1.5"/>
		<circle class="st7" cx="26.6" cy="22.3" r="1.5"/>
	</g>
</g>
</svg>
