<!-- Generator: Adobe Illustrator 24.0.3, SVG Export Plug-In  -->
<svg version="1.1" xmlns="http://www.w3.org/2000/svg" xmlns:xlink="http://www.w3.org/1999/xlink" x="0px" y="0px" viewBox="0 0 48 48" style="enable-background:new 0 0 48 48;" xml:space="preserve">
<style type="text/css">
	.st0{fill:none;}
	.st1{fill:url(#SVGID_1_);}
	.st2{fill:#FFFFFF;stroke:#3E6BFD;stroke-width:0.5019;stroke-linecap:round;stroke-miterlimit:10;}
	.st3{fill:#3E6BFD;}
	.st4{fill:none;stroke:#3E6BFD;stroke-width:0.5019;stroke-linecap:round;stroke-miterlimit:10;}
	.st5{fill:none;stroke:#FFFFFF;stroke-width:0.5019;stroke-linecap:round;stroke-miterlimit:10;}
	.st6{fill:#8EA8FF;}
	.st7{fill:#FFFFFF;}
	.st8{fill:url(#SVGID_2_);}
</style>
<defs>
</defs>
<g>
	<linearGradient id="SVGID_1_" gradientUnits="userSpaceOnUse" x1="0" y1="24" x2="48" y2="24">
		<stop  offset="0" style="stop-color:#FFFFFF"/>
		<stop  offset="0.3078" style="stop-color:#EDF2FF"/>
		<stop  offset="0.6482" style="stop-color:#E2EAFF"/>
		<stop  offset="1" style="stop-color:#DEE7FF"/>
	</linearGradient>
	<path class="st1" d="M31.2,4C17,5-1.3,20.6,0.1,35s33.4,10.2,43.7-2.9C51.7,22,49.1,2.8,31.2,4z"/>
	<g>
		<path class="st2" d="M39.3,40.9H10.9V9.6c0-0.7,0.5-1.2,1.2-1.2h26c0.7,0,1.2,0.5,1.2,1.2V40.9z"/>
		<rect x="10.9" y="24.8" class="st2" width="28.4" height="6.6"/>
		<rect x="17.6" y="34.9" class="st3" width="14.3" height="6"/>
		<g>
			<line class="st4" x1="17.7" y1="31.4" x2="17.7" y2="24.8"/>
			<line class="st4" x1="24.8" y1="31.4" x2="24.8" y2="24.8"/>
			<line class="st4" x1="31.9" y1="31.4" x2="31.9" y2="24.8"/>
		</g>
		<line class="st5" x1="24.8" y1="34.4" x2="24.8" y2="40.9"/>
		<g>
			<line class="st4" x1="5.6" y1="40.9" x2="44.7" y2="40.9"/>
		</g>
		<circle class="st6" cx="24.8" cy="17" r="5.2"/>
		<path class="st7" d="M25,16.6c-0.7-0.3-1.2-0.5-1.2-1c0-0.5,0.4-0.8,1.1-0.8c0.6,0,0.9,0.2,1.3,0.5l0.1,0.1l0.4-0.4l-0.1-0.1
			c-0.3-0.3-0.7-0.6-1.4-0.7V13h-0.6v1.2c-0.9,0.1-1.5,0.7-1.5,1.4c0,0.9,0.9,1.2,1.7,1.5c0.7,0.3,1.4,0.5,1.4,1.1
			c0,0.6-0.5,0.9-1.2,0.9c-0.7,0-1.3-0.3-1.6-0.6l-0.1-0.1l-0.4,0.5l0.1,0.1c0.2,0.2,0.8,0.6,1.7,0.7V21h0.6v-1.3
			c1-0.1,1.6-0.7,1.6-1.5C26.7,17.2,25.8,16.9,25,16.6z"/>
	</g>
</g>
</svg>
