<svg version="1.1" xmlns="http://www.w3.org/2000/svg" xmlns:xlink="http://www.w3.org/1999/xlink" x="0px" y="0px" viewBox="0 0 48 48" style="enable-background:new 0 0 48 48;" xml:space="preserve">
<style type="text/css">
	.st0{fill:none;}
	.st1{fill:url(#SVGID_1_);}
	.st2{fill:#FFFFFF;stroke:#3E6BFD;stroke-width:0.5019;stroke-linecap:round;stroke-miterlimit:10;}
	.st3{fill:#8EA8FF;}
	.st4{fill:none;stroke:#FFFFFF;stroke-width:0.5019;stroke-linecap:round;stroke-linejoin:round;stroke-miterlimit:10;}
	.st5{fill:#3E6BFD;}
	.st6{fill:#FFFFFF;}
	.st7{fill:url(#SVGID_2_);}
</style>
<defs>
</defs>
<g>
	<linearGradient id="SVGID_1_" gradientUnits="userSpaceOnUse" x1="0" y1="23.6673" x2="48" y2="23.6673">
		<stop  offset="0" style="stop-color:#FFFFFF"/>
		<stop  offset="0.3078" style="stop-color:#EDF2FF"/>
		<stop  offset="0.6482" style="stop-color:#E2EAFF"/>
		<stop  offset="1" style="stop-color:#DEE7FF"/>
	</linearGradient>
	<path class="st1" d="M31.2,3.7C17,4.7-1.3,20.3,0.1,34.7s33.4,10.2,43.7-2.9C51.7,21.7,49.1,2.4,31.2,3.7z"/>
	<g>
		<g>
			<path class="st2" d="M34.1,44.4H16.3c-1.4,0-2.5-1.1-2.5-2.5V6.7c0-1.4,1.1-2.5,2.5-2.5h17.9c1.4,0,2.5,1.1,2.5,2.5v35.1
				C36.6,43.3,35.5,44.4,34.1,44.4z"/>
			<polyline class="st2" points="13.9,38.9 29.8,38.9 31.7,38.9 36.6,38.9 			"/>
		</g>
		<circle class="st3" cx="25.2" cy="23" r="6.7"/>
		<g>
			<polyline class="st4" points="26.2,20.6 28.6,23.3 26.2,26 			"/>
			<line class="st4" x1="28.3" y1="23.3" x2="21.8" y2="23.3"/>
		</g>
		<path class="st5" d="M13.8,38.9v2.3c0,1.7,0.6,3.1,3.1,3.1h16.6c2.6,0,3.1-1.4,3.1-3.1v-2.3H13.8z"/>
		<path class="st6" d="M26.8,42.1h-3.2c-0.4,0-0.7-0.3-0.7-0.7l0,0c0-0.4,0.3-0.7,0.7-0.7h3.2c0.4,0,0.7,0.3,0.7,0.7l0,0
			C27.4,41.8,27.2,42.1,26.8,42.1z"/>
	</g>
</g>
</svg>
