<?xml version="1.0" encoding="utf-8"?>
<!-- Generator: Adobe Illustrator 24.0.3, SVG Export Plug-In . SVG Version: 6.00 Build 0)  -->
<svg version="1.1" id="Layer_1" xmlns="http://www.w3.org/2000/svg" xmlns:xlink="http://www.w3.org/1999/xlink" x="0px" y="0px"
	 viewBox="0 0 48 48" style="enable-background:new 0 0 48 48;" xml:space="preserve">
<style type="text/css">
	.st0{fill:#FFFFFF;}
	.st1{fill:#3564FD;}
	.st2{fill:#FFB3B2;}
	.st3{fill:none;stroke:#FFFFFF;stroke-width:0.96;stroke-linecap:round;stroke-linejoin:round;stroke-miterlimit:10;}
	.st4{fill:none;stroke:#3564FD;stroke-width:0.48;stroke-linecap:round;stroke-linejoin:round;stroke-miterlimit:10;}
	.st5{fill:#FFFFFF;stroke:#FFFFFF;stroke-width:0.24;stroke-miterlimit:10;}
</style>
<g>
	<g>
		<circle class="st0" cx="24" cy="24" r="23.8"/>
		<path class="st1" d="M24,0.5C37,0.5,47.5,11,47.5,24S37,47.5,24,47.5S0.5,37,0.5,24S11,0.5,24,0.5 M24,0C10.7,0,0,10.7,0,24
			s10.7,24,24,24s24-10.7,24-24S37.3,0,24,0L24,0z"/>
	</g>
	<g>
		<circle class="st2" cx="14.1" cy="24.1" r="5.4"/>
	</g>
	<polyline class="st3" points="11.9,24.5 13.3,25.9 16.4,22.8 	"/>
	<path class="st4" d="M18.4,10.9H9.9c-1.6,0-2.9,1.2-2.9,2.7v21.1c0,1.5,1.3,2.7,2.9,2.7h8.6c1.6,0,2.9-1.2,2.9-2.7V13.6
		C21.4,12.1,20,10.9,18.4,10.9z"/>
	<g>
		<circle class="st2" cx="33.3" cy="24.1" r="5.4"/>
	</g>
	<path class="st4" d="M37.5,10.9H29c-1.6,0-2.9,1.2-2.9,2.7v21.1c0,1.5,1.3,2.7,2.9,2.7h8.6c1.6,0,2.9-1.2,2.9-2.7V13.6
		C40.5,12.1,39.2,10.9,37.5,10.9z"/>
	<g>
		<polyline class="st4" points="20,4.3 19.1,6.7 21.8,7.2 		"/>
		<path class="st4" d="M30,6.9c0,0-1.6-1.2-3.7-1.5c-4.8-0.7-7.2,1.4-7.2,1.4"/>
	</g>
	<g>
		<polyline class="st4" points="28.3,43.5 29.2,41.1 26.5,40.6 		"/>
		<path class="st4" d="M18.3,40.9c0,0,1.6,1.2,3.7,1.5c4.8,0.7,7.2-1.4,7.2-1.4"/>
	</g>
	<g>
		<path class="st5" d="M35,25.8c-0.1,0.2-0.2,0.3-0.3,0.4c-0.1,0.1-0.3,0.2-0.5,0.3c-0.2,0.1-0.4,0.1-0.7,0.1v0.7H33v-0.8
			c-0.3,0-0.7-0.1-1-0.2c-0.3-0.1-0.6-0.3-0.8-0.5l0.3-0.5c0.2,0.2,0.5,0.4,0.7,0.5c0.2,0.1,0.5,0.2,0.8,0.2v-1.9
			c-0.6-0.1-1-0.3-1.2-0.5c-0.3-0.2-0.4-0.5-0.4-0.9c0-0.2,0-0.4,0.1-0.5c0.1-0.2,0.2-0.3,0.3-0.4c0.1-0.1,0.3-0.2,0.5-0.3
			c0.2-0.1,0.4-0.1,0.6-0.1v-0.4h0.5v0.5c0.3,0,0.5,0.1,0.8,0.2c0.2,0.1,0.5,0.2,0.7,0.4l-0.3,0.5c-0.2-0.2-0.4-0.3-0.6-0.4
			c-0.2-0.1-0.4-0.1-0.6-0.2v1.9c0.6,0.1,1,0.3,1.3,0.6c0.3,0.2,0.4,0.5,0.4,0.9C35.1,25.5,35.1,25.6,35,25.8z M33,21.9
			c-0.2,0-0.3,0-0.4,0.1c-0.1,0-0.2,0.1-0.3,0.2c-0.1,0.1-0.2,0.2-0.2,0.3c0,0.1-0.1,0.2-0.1,0.3c0,0.1,0,0.2,0,0.3
			c0,0.1,0.1,0.2,0.2,0.3c0.1,0.1,0.2,0.1,0.3,0.2c0.1,0.1,0.3,0.1,0.5,0.2V21.9z M34.5,25c0-0.1-0.1-0.2-0.2-0.3
			c-0.1-0.1-0.2-0.1-0.3-0.2c-0.1-0.1-0.3-0.1-0.5-0.2v1.8c0.3,0,0.6-0.1,0.8-0.3c0.2-0.2,0.3-0.4,0.3-0.6
			C34.5,25.2,34.5,25.1,34.5,25z"/>
	</g>
	<path class="st1" d="M15.9,12h-3.6c-0.3,0-0.5-0.2-0.5-0.5v0c0-0.3,0.2-0.5,0.5-0.5h3.6c0.3,0,0.5,0.2,0.5,0.5v0
		C16.5,11.8,16.2,12,15.9,12z"/>
	<line class="st4" x1="6.9" y1="34.7" x2="21.4" y2="34.7"/>
	<path class="st1" d="M35.2,12h-3.6c-0.3,0-0.5-0.2-0.5-0.5v0c0-0.3,0.2-0.5,0.5-0.5h3.6c0.3,0,0.5,0.2,0.5,0.5v0
		C35.7,11.8,35.5,12,35.2,12z"/>
	<line class="st4" x1="26.2" y1="34.7" x2="40.6" y2="34.7"/>
</g>
</svg>
