<!-- Generator: Adobe Illustrator 24.0.3, SVG Export Plug-In  -->
<svg version="1.1" xmlns="http://www.w3.org/2000/svg" xmlns:xlink="http://www.w3.org/1999/xlink" x="0px" y="0px" viewBox="0 0 48 48" style="enable-background:new 0 0 48 48;" xml:space="preserve">
<style type="text/css">
	.st0{fill:none;}
	.st1{fill:url(#SVGID_1_);}
	.st2{fill:none;stroke:#3E6BFD;stroke-width:0.5019;stroke-linecap:round;stroke-miterlimit:10;}
	.st3{fill:#FFFFFF;stroke:#3E6BFD;stroke-width:0.5019;stroke-linecap:round;stroke-miterlimit:10;}
	.st4{fill:#3E6BFD;}
	.st5{fill:#8EA8FF;}
	.st6{fill:#98E2B9;}
	.st7{fill:none;stroke:#FFFFFF;stroke-width:0.5019;stroke-linecap:round;stroke-linejoin:round;stroke-miterlimit:10;}
	.st8{fill:none;stroke:#3E6BFD;stroke-width:0.5019;stroke-linecap:round;stroke-linejoin:round;stroke-miterlimit:10;}
	.st9{fill:#FFFFFF;}
	.st10{fill:url(#SVGID_2_);}
</style>
<defs>
</defs>
<g>
	<linearGradient id="SVGID_1_" gradientUnits="userSpaceOnUse" x1="9.094947e-13" y1="23.0087" x2="48" y2="23.0087">
		<stop  offset="0" style="stop-color:#FFFFFF"/>
		<stop  offset="0.3078" style="stop-color:#EDF2FF"/>
		<stop  offset="0.6482" style="stop-color:#E2EAFF"/>
		<stop  offset="1" style="stop-color:#DEE7FF"/>
	</linearGradient>
	<path class="st1" d="M31.2,3C17,4-1.3,19.6,0.1,34s33.4,10.2,43.7-2.9C51.7,21,49.1,1.8,31.2,3z"/>
	<path class="st2" d="M9.5,7.4C13.9,3,19.8,0.6,26.1,0.6c2.2,0,4.4,0.3,6.5,0.9"/>
	<path class="st2" d="M42.6,40.6c-4.4,4.4-10.3,6.9-16.6,6.9c-4.4,0-8.6-1.2-12.3-3.5"/>
	<g>
		<g>
			<path class="st3" d="M18,39.4H5.6c-0.9,0-1.6-0.7-1.6-1.6V13.7c0-0.9,0.7-1.6,1.6-1.6H18c0.9,0,1.6,0.7,1.6,1.6v24.1
				C19.6,38.7,18.9,39.4,18,39.4z"/>
			<path class="st4" d="M19.6,35.7h-3.3H15H4.1v2c0,0.9,0.8,1.7,1.7,1.7h12.1c0.9,0,1.7-0.8,1.7-1.7V35.7z"/>
		</g>
		<circle class="st5" cx="11.8" cy="24.8" r="4.6"/>
	</g>
	<g>
		<g>
			<path class="st3" d="M45.8,32.8H33.4c-0.9,0-1.6-0.7-1.6-1.6V7.1c0-0.9,0.7-1.6,1.6-1.6h12.4c0.9,0,1.6,0.7,1.6,1.6v24.1
				C47.4,32.1,46.7,32.8,45.8,32.8z"/>
			<polyline class="st3" points="47.4,29.1 44.1,29.1 42.7,29.1 31.9,29.1 			"/>
			<path class="st4" d="M47.4,29.1H44h-1.3H31.8v2c0,0.9,0.8,1.7,1.7,1.7h12.1c0.9,0,1.7-0.8,1.7-1.7V29.1z"/>
		</g>
		<circle class="st6" cx="39.6" cy="18.3" r="4.6"/>
		<polyline class="st7" points="37.1,18.2 38.8,19.9 42.1,16.7 		"/>
	</g>
	<polyline class="st8" points="9.3,4.3 9.5,7.4 12.6,7.6 	"/>
	<polyline class="st8" points="42.8,43.4 42.9,40.3 39.8,39.9 	"/>
	<path class="st9" d="M12.9,37.8h-2.2c-0.2,0-0.4-0.2-0.4-0.4l0,0c0-0.2,0.2-0.4,0.4-0.4h2.2c0.2,0,0.4,0.2,0.4,0.4l0,0
		C13.4,37.6,13.2,37.8,12.9,37.8z"/>
	<path class="st9" d="M40.7,31.3h-2.2c-0.2,0-0.4-0.2-0.4-0.4l0,0c0-0.2,0.2-0.4,0.4-0.4h2.2c0.2,0,0.4,0.2,0.4,0.4l0,0
		C41.1,31.1,40.9,31.3,40.7,31.3z"/>
	<path class="st9" d="M12,24.5c-0.5-0.2-0.9-0.3-0.9-0.7c0-0.3,0.3-0.6,0.7-0.6c0.4,0,0.6,0.1,0.9,0.4l0.1,0l0.3-0.3L13,23.4
		c-0.2-0.2-0.5-0.4-0.9-0.5v-0.8h-0.4v0.8c-0.6,0.1-1,0.5-1,1c0,0.6,0.6,0.8,1.1,1c0.5,0.2,0.9,0.4,0.9,0.8c0,0.4-0.3,0.6-0.8,0.6
		c-0.5,0-0.9-0.2-1.1-0.4l-0.1-0.1l-0.2,0.3l0.1,0c0.2,0.1,0.6,0.4,1.2,0.5v0.9h0.4v-0.9c0.7-0.1,1.1-0.5,1.1-1
		C13.2,25,12.6,24.7,12,24.5z"/>
</g>
</svg>
