<?xml version="1.0" encoding="UTF-8"?>
<svg width="207px" height="23px" viewBox="0 0 207 23" version="1.1" xmlns="http://www.w3.org/2000/svg" xmlns:xlink="http://www.w3.org/1999/xlink">
    <title>Group 18</title>
    <defs>
        <polygon id="path-1" points="0.0256923077 0.125 19.745641 0.125 19.745641 21.85 0.0256923077 21.85"></polygon>
    </defs>
    <g id="Welcome" stroke="none" stroke-width="1" fill="none" fill-rule="evenodd">
        <g id="Prensa---Desktop" transform="translate(-903.000000, -1955.000000)">
            <g id="Group-5" transform="translate(879.000000, 1915.000000)">
                <g id="Group-18" transform="translate(24.000000, 40.000000)">
                    <path d="M16,0.304849885 L16,3.20092379 C16,3.37875289 15.8769231,3.50577367 15.7046154,3.50577367 L3.64307692,3.50577367 L3.64307692,9.42494226 L13.6123077,9.42494226 C13.7846154,9.42494226 13.9076923,9.55196305 13.9076923,9.72979215 L13.9076923,12.6258661 C13.9076923,12.8036952 13.7846154,12.9307159 13.6123077,12.9307159 L3.64307692,12.9307159 L3.64307692,21.6951501 C3.64307692,21.8729792 3.52,22 3.34769231,22 L0.295384615,22 C0.123076923,22 0,21.8729792 0,21.6951501 L0,0.304849885 C0,0.127020785 0.123076923,0 0.295384615,0 L15.7046154,0 C15.8769231,0 16,0.127020785 16,0.304849885" id="Fill-1" fill="#67788A"></path>
                    <path d="M35.0667469,12.6835443 C33.9173392,9.51898734 32.6146771,6.32911392 31.3120151,3.44303797 L30.5712857,3.44303797 C29.2430812,6.32911392 27.9659616,9.51898734 26.7910115,12.6835443 L35.0667469,12.6835443 Z M41.7077692,22 L38.2595461,22 C38.0807493,22 37.9530374,21.898481 37.9019526,21.721519 C37.4421895,19.9240506 36.8802568,18 36.241697,16.1012658 L25.6160614,16.1012658 C24.9775015,18.0253165 24.4155689,19.9240506 23.9813482,21.721519 C23.9302634,21.898481 23.8025514,22 23.6237547,22 L20.3032435,22 C20.073362,22 19.94565,21.8734177 20.0222772,21.6453165 C22.0145839,14.6329114 25.0541287,6.91139241 28.1447583,0.405063291 C28.2980127,0.101265823 28.451267,0 28.7577757,0 L33.253237,0 C33.5597457,0 33.7385425,0.101265823 33.8662544,0.405063291 C36.9824264,6.88607595 39.9708864,14.6582278 41.9887355,21.6453165 C42.0398203,21.8734177 41.9121083,22 41.7077692,22 L41.7077692,22 Z" id="Fill-3" fill="#67788A"></path>
                    <path d="M47,11.6914539 C47,4.82463929 51.4536767,0 57.7839027,0 L58.2592951,0 C62.2375794,0 65.3151201,2.06770255 66.9414627,5.02885683 C67.0415453,5.20754717 67.0165247,5.38623751 66.8413801,5.46281909 L64.1141286,6.84128746 C63.938984,6.94339623 63.6887774,6.94339623 63.5636742,6.68812431 C62.412724,4.67147614 60.6862987,3.57380688 58.1341918,3.57380688 L57.6587994,3.57380688 C53.6554945,3.57380688 50.928243,6.81576027 50.928243,11.4872364 C50.928243,16.184495 53.6304738,19.3496115 57.6587994,19.3496115 L58.1341918,19.3496115 C60.7363401,19.3496115 62.2626001,18.4561598 63.4385709,17.0779467 C63.5886948,16.8990011 63.7638394,16.8734739 63.938984,16.9755827 L66.7412975,18.3795782 C66.8413801,18.4306326 66.8914214,18.5327414 66.8914214,18.6095782 C66.8914214,18.6859046 66.8664007,18.7624861 66.7913388,18.8390677 C65.0649135,21.4175694 61.9623522,23 58.1592125,23 L57.7088407,23 C51.2785321,23 47,18.4819423 47,11.6914539" id="Fill-5" fill="#67788A"></path>
                    <path d="M92,18.806235 L92,21.6956026 C92,21.8732733 91.8742604,22 91.6982249,22 L75.3017751,22 C75.1257396,22 75,21.8732733 75,21.6956026 L75,0.304143961 C75,0.126726651 75.1257396,0 75.3017751,0 L91.4215976,0 C91.5976331,0 91.7233728,0.126726651 91.7233728,0.304143961 L91.7233728,3.1935116 C91.7233728,3.37092891 91.5976331,3.49765556 91.4215976,3.49765556 L78.7218935,3.49765556 L78.7218935,9.22570016 L89.0325444,9.22570016 C89.2085799,9.22570016 89.3343195,9.35242682 89.3343195,9.52984413 L89.3343195,12.3938664 C89.3343195,12.5712837 89.2085799,12.6980104 89.0325444,12.6980104 L78.6967456,12.6980104 L78.6967456,18.4516538 L91.6982249,18.4516538 C91.8742604,18.502091 92,18.6288176 92,18.806235" id="Fill-7" fill="#67788A"></path>
                    <path d="M116.234908,15.6380687 C116.234908,13.5850969 114.913386,12.6726651 111.971129,12.6726651 L104.690289,12.6726651 L104.690289,18.5783804 L111.971129,18.5783804 C114.93832,18.5783804 116.234908,17.7163858 116.234908,15.6380687 M110.923885,3.42161957 L104.665354,3.42161957 L104.665354,9.32708149 L110.923885,9.32708149 C113.716535,9.32708149 115.013123,8.38930427 115.013123,6.36167786 C115.013123,4.33405145 113.74147,3.42161957 110.923885,3.42161957 M120,15.967558 C120,19.8200482 117.082677,22 111.946194,22 L101.299213,22 C101.124672,22 101,21.8732733 101,21.6956026 L101,0.304143961 C101,0.126726651 101.124672,0 101.299213,0 L110.998688,0 C116.010499,0 118.728346,2.00228108 118.728346,5.70269928 C118.728346,8.13585097 117.531496,9.70726144 115.062992,10.4676213 C118.528871,11.1772906 120,13.280953 120,15.967558" id="Fill-9" fill="#67788A"></path>
                    <path d="M138.739321,19.3793723 C143.223439,19.3793723 146.070099,16.268473 146.070099,11.5001275 C146.070099,6.73152696 143.248631,3.62088271 138.739321,3.62088271 L138.260679,3.62088271 C133.776561,3.62088271 130.929901,6.73152696 130.929901,11.5001275 C130.929901,16.268473 133.751369,19.3793723 138.260679,19.3793723 L138.739321,19.3793723 Z M127,11.5001275 C127,4.8190889 131.383352,0 138.260679,0 L138.739321,0 C145.616648,0 150,4.8190889 150,11.5001275 C150,18.1809111 145.616648,23 138.739321,23 L138.260679,23 C131.383352,23 127,18.1809111 127,11.5001275 L127,11.5001275 Z" id="Fill-11" fill="#67788A"></path>
                    <path d="M167.739321,19.3793723 C172.223439,19.3793723 175.070099,16.268473 175.070099,11.5001275 C175.070099,6.73152696 172.248631,3.62088271 167.739321,3.62088271 L167.260679,3.62088271 C162.776561,3.62088271 159.929901,6.73152696 159.929901,11.5001275 C159.929901,16.268473 162.751369,19.3793723 167.260679,19.3793723 L167.739321,19.3793723 Z M156,11.5001275 C156,4.8190889 160.383352,0 167.260679,0 L167.739321,0 C174.616648,0 179,4.8190889 179,11.5001275 C179,18.1809111 174.616648,23 167.739321,23 L167.260679,23 C160.383352,23 156,18.1809111 156,11.5001275 L156,11.5001275 Z" id="Fill-13" fill="#67788A"></path>
                    <g id="Group-17" transform="translate(187.000000, 0.000000)">
                        <mask id="mask-2" fill="white">
                            <use xlink:href="#path-1"></use>
                        </mask>
                        <g id="Clip-16"></g>
                        <path d="M19.4872308,21.85 L15.3846667,21.85 C15.102359,21.85 15.0000513,21.8 14.8205641,21.575 C11.9487692,18.275 8.53851282,14.975 5.64107692,12.55 L3.79492308,12.55 L3.79492308,21.525 C3.79492308,21.7 3.66671795,21.825 3.48723077,21.825 L0.333384615,21.825 C0.153897436,21.825 0.0256923077,21.7 0.0256923077,21.525 L0.0256923077,0.425 C0.0256923077,0.25 0.153897436,0.125 0.333384615,0.125 L3.48723077,0.125 C3.66671795,0.125 3.79492308,0.25 3.79492308,0.425 L3.79492308,9 L5.66671795,9 C8.76928205,6.275 11.6410769,3.325 13.9744103,0.35 C14.1282564,0.15 14.2564615,0.125 14.4613333,0.125 L18.3333846,0.125 C18.5128718,0.125 18.6154359,0.225 18.6154359,0.35 C18.6154359,0.4 18.5897949,0.5 18.5128718,0.575 C15.102359,4.7 11.692359,8.05 8.56415385,10.675 C12.5128718,13.925 16.2562051,17.575 19.6667179,21.475 C19.8205641,21.65 19.743641,21.85 19.4872308,21.85" id="Fill-15" fill="#67788A" mask="url(#mask-2)"></path>
                    </g>
                </g>
            </g>
        </g>
    </g>
</svg>